<?xml version="1.0" encoding="UTF-8"?>
<svg xmlns="http://www.w3.org/2000/svg" xmlns:xlink="http://www.w3.org/1999/xlink" width="512px" height="512px" viewBox="0 0 512 512" version="1.1">
<defs>
<clipPath id="clip1">
  <path d="M 111.121094 111.160156 L 401.238281 111.160156 L 401.238281 401.238281 L 111.121094 401.238281 Z M 111.121094 111.160156 "/>
</clipPath>
<clipPath id="clip2">
  <path d="M 187 159.742188 L 357.066406 159.742188 L 357.066406 293.886719 L 187 293.886719 Z M 187 159.742188 "/>
</clipPath>
<clipPath id="clip3">
  <path d="M 156.734375 148.742188 L 330.753906 148.742188 L 330.753906 307.199219 L 156.734375 307.199219 Z M 156.734375 148.742188 "/>
</clipPath>
<clipPath id="clip4">
  <path d="M 284 148.742188 L 330.753906 148.742188 L 330.753906 195 L 284 195 Z M 284 148.742188 "/>
</clipPath>
</defs>
<g id="surface1">
<rect x="0" y="0" width="512" height="512" style="fill:rgb(100%,100%,100%);fill-opacity:1;stroke:none;"/>
<g clip-path="url(#clip1)" clip-rule="nonzero">
<path style=" stroke:none;fill-rule:nonzero;fill:rgb(84.313726%,88.235295%,100%);fill-opacity:1;" d="M 256.570312 111.160156 C 336.902344 111.160156 402.023438 176.28125 402.023438 256.605469 C 402.023438 336.9375 336.902344 402.054688 256.570312 402.054688 C 176.238281 402.054688 111.121094 336.9375 111.121094 256.605469 C 111.121094 176.28125 176.238281 111.160156 256.570312 111.160156 Z M 256.570312 111.160156 "/>
</g>
<g clip-path="url(#clip2)" clip-rule="nonzero">
<path style=" stroke:none;fill-rule:nonzero;fill:rgb(62.352943%,71.764708%,100%);fill-opacity:1;" d="M 353.214844 211.277344 C 353.035156 211.5625 350.804688 214.644531 346.355469 220.800781 C 339.425781 230.371094 339.429688 230.335938 339.292969 230.515625 C 336.863281 234.375 337.53125 242.535156 350.0625 261.210938 C 359.988281 275.988281 347.570312 295.628906 330.039062 292.644531 C 316.703125 290.386719 300.742188 284.054688 284.800781 281.695312 C 267.398438 278.878906 224.503906 295.542969 220.558594 293.296875 C 195.835938 294.875 184.078125 274.640625 187.800781 256.507812 C 190.203125 242.148438 198.65625 242.570312 203.496094 229.597656 C 211.253906 208.925781 193.558594 193.53125 200.203125 176.816406 C 206.308594 161.105469 231.234375 154.8125 245.851562 164.4375 C 266.777344 176.652344 283.316406 187.242188 302.574219 174.597656 C 324.382812 163.597656 346.863281 169.574219 353.867188 182.292969 C 358.078125 189.9375 358.402344 203.121094 353.214844 211.277344 Z M 353.214844 211.277344 "/>
</g>
<g clip-path="url(#clip3)" clip-rule="nonzero">
<path style=" stroke:none;fill-rule:nonzero;fill:rgb(14.901961%,38.82353%,100%);fill-opacity:1;" d="M 287.613281 201.210938 C 282.277344 201.210938 277.945312 196.875 277.945312 191.53125 L 277.945312 148.742188 L 222.375 148.742188 C 216.640625 148.734375 211.988281 153.382812 211.984375 159.125 C 211.984375 159.132812 211.984375 159.144531 211.984375 159.144531 L 211.984375 178.601562 L 229.976562 178.601562 C 231.707031 178.601562 233.117188 180.011719 233.117188 181.742188 L 233.117188 186.066406 C 233.121094 187.707031 231.863281 189.074219 230.234375 189.210938 L 203.679688 189.210938 C 201.949219 189.210938 200.542969 190.617188 200.542969 192.355469 L 200.542969 196.675781 C 200.542969 198.410156 201.949219 199.816406 203.679688 199.816406 L 223.054688 199.816406 C 224.796875 199.816406 226.199219 201.226562 226.199219 202.960938 L 226.199219 207.292969 C 226.199219 209.027344 224.789062 210.4375 223.054688 210.4375 L 159.585938 210.4375 C 157.851562 210.4375 156.445312 211.839844 156.445312 213.574219 L 156.445312 218.675781 C 156.445312 220.410156 157.851562 221.816406 159.585938 221.816406 L 234.695312 221.816406 C 236.410156 221.84375 237.789062 223.238281 237.789062 224.960938 L 237.789062 229.773438 C 237.789062 231.507812 236.382812 232.914062 234.652344 232.914062 L 186.613281 232.914062 C 184.875 232.914062 183.476562 234.320312 183.476562 236.054688 L 183.476562 240.851562 C 183.476562 242.589844 184.878906 243.988281 186.613281 243.988281 L 211.984375 243.988281 L 211.984375 296.878906 C 212.023438 302.601562 216.664062 307.222656 222.375 307.226562 L 320.226562 307.226562 C 325.964844 307.214844 330.617188 302.554688 330.617188 296.804688 L 330.617188 201.210938 Z M 319.242188 292.492188 C 319.238281 293.066406 318.773438 293.535156 318.195312 293.535156 L 226.039062 293.535156 C 225.464844 293.535156 224.996094 293.066406 224.988281 292.492188 L 224.988281 291.316406 C 224.988281 290.730469 225.464844 290.265625 226.039062 290.265625 L 318.195312 290.265625 C 318.773438 290.265625 319.242188 290.730469 319.242188 291.316406 Z M 319.242188 277.105469 C 319.238281 277.679688 318.773438 278.148438 318.195312 278.148438 L 226.039062 278.148438 C 225.464844 278.148438 224.996094 277.679688 224.988281 277.105469 L 224.988281 275.921875 C 224.988281 275.34375 225.457031 274.875 226.035156 274.875 C 226.035156 274.875 226.035156 274.875 226.039062 274.875 L 318.195312 274.875 C 318.773438 274.875 319.238281 275.335938 319.242188 275.914062 C 319.242188 275.914062 319.242188 275.914062 319.242188 275.921875 Z M 319.242188 261.714844 C 319.242188 262.285156 318.777344 262.757812 318.199219 262.757812 C 318.195312 262.757812 318.195312 262.757812 318.195312 262.757812 L 226.039062 262.757812 C 225.464844 262.761719 224.996094 262.296875 224.988281 261.71875 C 224.988281 261.714844 224.988281 261.714844 224.988281 261.714844 L 224.988281 260.523438 C 224.996094 259.949219 225.464844 259.484375 226.039062 259.484375 L 318.195312 259.484375 C 318.773438 259.484375 319.238281 259.949219 319.242188 260.523438 Z M 319.242188 246.320312 C 319.242188 246.894531 318.773438 247.371094 318.195312 247.371094 L 226.039062 247.371094 C 225.464844 247.371094 224.988281 246.894531 224.988281 246.320312 L 224.988281 245.144531 C 224.988281 244.558594 225.464844 244.09375 226.039062 244.09375 L 318.195312 244.09375 C 318.773438 244.09375 319.242188 244.558594 319.242188 245.144531 Z M 319.242188 246.320312 "/>
</g>
<path style=" stroke:none;fill-rule:nonzero;fill:rgb(14.901961%,38.82353%,100%);fill-opacity:1;" d="M 176.617188 189.074219 L 193.484375 189.074219 C 194.835938 189.074219 195.925781 190.171875 195.925781 191.519531 L 195.925781 197.199219 C 195.925781 198.546875 194.835938 199.644531 193.484375 199.644531 L 176.617188 199.644531 C 175.269531 199.644531 174.175781 198.546875 174.175781 197.199219 L 174.175781 191.519531 C 174.175781 190.171875 175.269531 189.074219 176.617188 189.074219 Z M 176.617188 189.074219 "/>
<g clip-path="url(#clip4)" clip-rule="nonzero">
<path style=" stroke:none;fill-rule:nonzero;fill:rgb(14.901961%,38.82353%,100%);fill-opacity:1;" d="M 284.496094 148.742188 L 330.628906 194.921875 L 293.050781 194.921875 C 288.324219 194.921875 284.496094 191.085938 284.496094 186.359375 Z M 284.496094 148.742188 "/>
</g>
<path style=" stroke:none;fill-rule:nonzero;fill:rgb(14.901961%,38.82353%,100%);fill-opacity:1;" d="M 188.222656 342.0625 C 188.222656 343.757812 187.796875 345.253906 186.9375 346.5625 C 186.078125 347.875 184.84375 348.890625 183.234375 349.617188 C 181.625 350.34375 179.730469 350.707031 177.558594 350.707031 C 175.746094 350.707031 174.226562 350.585938 173 350.324219 C 171.773438 350.074219 170.492188 349.628906 169.164062 348.996094 L 169.164062 342.445312 C 170.5625 343.164062 172.023438 343.722656 173.535156 344.125 C 175.050781 344.53125 176.441406 344.730469 177.707031 344.730469 C 178.800781 344.730469 179.601562 344.542969 180.109375 344.164062 C 180.617188 343.785156 180.867188 343.296875 180.867188 342.695312 C 180.867188 342.324219 180.765625 342 180.5625 341.71875 C 180.359375 341.441406 180.027344 341.160156 179.574219 340.875 C 179.125 340.589844 177.921875 340.003906 175.957031 339.125 C 174.183594 338.316406 172.851562 337.53125 171.964844 336.777344 C 171.078125 336.015625 170.414062 335.148438 169.996094 334.171875 C 169.5625 333.1875 169.347656 332.027344 169.347656 330.683594 C 169.347656 328.175781 170.265625 326.222656 172.085938 324.816406 C 173.90625 323.414062 176.414062 322.714844 179.605469 322.714844 C 182.425781 322.714844 185.292969 323.363281 188.222656 324.667969 L 185.972656 330.34375 C 183.429688 329.175781 181.226562 328.597656 179.382812 328.597656 C 178.429688 328.597656 177.730469 328.765625 177.296875 329.105469 C 176.863281 329.4375 176.644531 329.851562 176.644531 330.347656 C 176.644531 330.882812 176.921875 331.363281 177.476562 331.785156 C 178.027344 332.203125 179.523438 332.976562 181.972656 334.097656 C 184.316406 335.148438 185.945312 336.28125 186.855469 337.492188 C 187.765625 338.703125 188.222656 340.226562 188.222656 342.0625 Z M 188.222656 342.0625 "/>
<path style=" stroke:none;fill-rule:nonzero;fill:rgb(14.901961%,38.82353%,100%);fill-opacity:1;" d="M 202.253906 350.707031 C 198.734375 350.707031 196.011719 349.773438 194.066406 347.902344 C 192.125 346.035156 191.160156 343.371094 191.160156 339.921875 C 191.160156 336.359375 192.054688 333.625 193.855469 331.714844 C 195.65625 329.8125 198.222656 328.855469 201.558594 328.855469 C 204.734375 328.855469 207.195312 329.683594 208.921875 331.34375 C 210.652344 333 211.519531 335.382812 211.519531 338.496094 L 211.519531 341.734375 L 198.507812 341.734375 C 198.558594 342.921875 198.988281 343.851562 199.800781 344.523438 C 200.617188 345.195312 201.71875 345.53125 203.125 345.53125 C 204.402344 345.53125 205.574219 345.410156 206.652344 345.171875 C 207.722656 344.925781 208.882812 344.507812 210.144531 343.925781 L 210.144531 349.160156 C 209 349.742188 207.824219 350.148438 206.605469 350.371094 C 205.386719 350.597656 203.9375 350.707031 202.253906 350.707031 M 201.824219 333.804688 C 200.964844 333.804688 200.253906 334.078125 199.675781 334.617188 C 199.097656 335.15625 198.761719 336.003906 198.65625 337.160156 L 204.914062 337.160156 C 204.882812 336.144531 204.601562 335.324219 204.042969 334.71875 C 203.492188 334.117188 202.757812 333.804688 201.824219 333.804688 Z M 201.824219 333.804688 "/>
<path style=" stroke:none;fill-rule:nonzero;fill:rgb(14.901961%,38.82353%,100%);fill-opacity:1;" d="M 228.949219 350.335938 L 228.949219 338.816406 C 228.949219 337.414062 228.746094 336.355469 228.34375 335.640625 C 227.945312 334.925781 227.292969 334.570312 226.398438 334.570312 C 225.171875 334.570312 224.285156 335.0625 223.734375 336.039062 C 223.195312 337.023438 222.921875 338.707031 222.921875 341.09375 L 222.921875 350.335938 L 215.640625 350.335938 L 215.640625 329.226562 L 221.132812 329.226562 L 222.042969 331.835938 L 222.476562 331.835938 C 223.09375 330.84375 223.957031 330.097656 225.050781 329.601562 C 226.148438 329.105469 227.410156 328.855469 228.839844 328.855469 C 231.171875 328.855469 232.984375 329.53125 234.28125 330.882812 C 235.574219 332.238281 236.226562 334.148438 236.226562 336.605469 L 236.226562 350.335938 Z M 228.949219 350.335938 "/>
<path style=" stroke:none;fill-rule:nonzero;fill:rgb(14.901961%,38.82353%,100%);fill-opacity:1;" d="M 247.773438 350.707031 C 246.269531 350.707031 244.960938 350.28125 243.835938 349.425781 C 242.714844 348.5625 241.84375 347.304688 241.226562 345.640625 C 240.617188 343.976562 240.308594 342.035156 240.308594 339.8125 C 240.308594 336.382812 241 333.703125 242.375 331.765625 C 243.757812 329.824219 245.644531 328.855469 248.050781 328.855469 C 249.226562 328.855469 250.265625 329.09375 251.148438 329.5625 C 252.039062 330.035156 252.84375 330.828125 253.574219 331.949219 L 253.730469 331.949219 C 253.492188 330.304688 253.375 328.652344 253.375 327.003906 L 253.375 321.375 L 260.707031 321.375 L 260.707031 350.335938 L 255.214844 350.335938 L 253.652344 347.667969 L 253.375 347.667969 C 252.121094 349.695312 250.257812 350.707031 247.773438 350.707031 M 250.746094 344.957031 C 251.914062 344.957031 252.734375 344.589844 253.214844 343.855469 C 253.695312 343.121094 253.957031 341.996094 253.988281 340.464844 L 253.988281 339.882812 C 253.988281 338.015625 253.71875 336.691406 253.1875 335.902344 C 252.65625 335.117188 251.816406 334.71875 250.675781 334.71875 C 249.71875 334.71875 248.976562 335.171875 248.453125 336.066406 C 247.925781 336.972656 247.664062 338.257812 247.664062 339.921875 C 247.664062 341.558594 247.925781 342.8125 248.464844 343.667969 C 248.996094 344.523438 249.761719 344.957031 250.746094 344.957031 Z M 250.746094 344.957031 "/>
<path style=" stroke:none;fill-rule:nonzero;fill:rgb(14.901961%,38.82353%,100%);fill-opacity:1;" d="M 266.222656 323.125 L 275.71875 323.125 C 279.414062 323.125 282.160156 323.675781 283.957031 324.773438 C 285.746094 325.863281 286.644531 327.570312 286.644531 329.890625 C 286.644531 331.410156 286.253906 332.714844 285.46875 333.796875 C 284.691406 334.867188 283.65625 335.5625 282.382812 335.875 L 282.382812 336.054688 C 284.066406 336.507812 285.292969 337.253906 286.042969 338.296875 C 286.804688 339.34375 287.183594 340.691406 287.183594 342.359375 C 287.183594 344.828125 286.257812 346.777344 284.398438 348.199219 C 282.542969 349.625 280.015625 350.335938 276.816406 350.335938 L 266.222656 350.335938 L 266.222656 323.125 M 273.574219 333.546875 L 275.796875 333.546875 C 276.84375 333.546875 277.664062 333.332031 278.238281 332.894531 C 278.816406 332.46875 279.105469 331.824219 279.105469 330.972656 C 279.105469 329.453125 277.949219 328.691406 275.644531 328.691406 L 273.574219 328.691406 L 273.574219 333.546875 M 273.574219 338.925781 L 273.574219 344.65625 L 276.164062 344.65625 C 278.457031 344.65625 279.605469 343.683594 279.605469 341.742188 C 279.605469 340.835938 279.304688 340.136719 278.683594 339.652344 C 278.074219 339.171875 277.183594 338.925781 276.015625 338.925781 Z M 273.574219 338.925781 "/>
<path style=" stroke:none;fill-rule:nonzero;fill:rgb(14.901961%,38.82353%,100%);fill-opacity:1;" d="M 298.691406 350.335938 L 291.410156 350.335938 L 291.410156 329.226562 L 298.691406 329.226562 L 298.691406 350.335938 M 291.226562 323.984375 C 291.226562 322.882812 291.53125 322.074219 292.136719 321.542969 C 292.746094 321.003906 293.722656 320.742188 295.078125 320.742188 C 296.4375 320.742188 297.414062 321.015625 298.039062 321.558594 C 298.65625 322.109375 298.972656 322.914062 298.972656 323.984375 C 298.972656 326.117188 297.675781 327.183594 295.078125 327.183594 C 292.515625 327.183594 291.226562 326.117188 291.226562 323.984375 Z M 291.226562 323.984375 "/>
<path style=" stroke:none;fill-rule:nonzero;fill:rgb(14.901961%,38.82353%,100%);fill-opacity:1;" d="M 311.195312 350.335938 L 303.914062 350.335938 L 303.914062 321.375 L 311.195312 321.375 Z M 311.195312 350.335938 "/>
<path style=" stroke:none;fill-rule:nonzero;fill:rgb(14.901961%,38.82353%,100%);fill-opacity:1;" d="M 323.730469 350.335938 L 316.453125 350.335938 L 316.453125 321.375 L 323.730469 321.375 Z M 323.730469 350.335938 "/>
<path style=" stroke:none;fill-rule:nonzero;fill:rgb(14.901961%,38.82353%,100%);fill-opacity:1;" d="M 344.851562 350.335938 L 327.394531 350.335938 L 327.394531 346.183594 L 336.121094 334.796875 L 327.894531 334.796875 L 327.894531 329.226562 L 344.441406 329.226562 L 344.441406 333.730469 L 336.085938 344.773438 L 344.851562 344.773438 Z M 344.851562 350.335938 "/>
</g>
</svg>
