<svg xmlns="http://www.w3.org/2000/svg" xmlns:xlink="http://www.w3.org/1999/xlink" width="500" zoomAndPan="magnify" viewBox="0 0 375 374.999991" height="500" preserveAspectRatio="xMidYMid meet" version="1.2"><defs><clipPath id="c139a78b2c"><path d="M 54.375 54.375 L 320.625 54.375 L 320.625 320.625 L 54.375 320.625 Z M 54.375 54.375 "/></clipPath><clipPath id="3742f1f416"><path d="M 187.5 54.375 C 113.976562 54.375 54.375 113.976562 54.375 187.5 C 54.375 261.023438 113.976562 320.625 187.5 320.625 C 261.023438 320.625 320.625 261.023438 320.625 187.5 C 320.625 113.976562 261.023438 54.375 187.5 54.375 Z M 187.5 54.375 "/></clipPath><linearGradient x1="0.00000502565" gradientTransform="matrix(1.040039,0,0,1.040039,54.375003,54.374999)" y1="255.999995" x2="255.999995" gradientUnits="userSpaceOnUse" y2="0.00000502565" id="9e50684886"><stop style="stop-color:#1a1054;stop-opacity:1;" offset="0"/><stop style="stop-color:#1a1055;stop-opacity:1;" offset="0.00390625"/><stop style="stop-color:#1a1155;stop-opacity:1;" offset="0.0078125"/><stop style="stop-color:#1a1156;stop-opacity:1;" offset="0.0117188"/><stop style="stop-color:#1a1156;stop-opacity:1;" offset="0.015625"/><stop style="stop-color:#1a1257;stop-opacity:1;" offset="0.0195313"/><stop style="stop-color:#1a1258;stop-opacity:1;" offset="0.0234375"/><stop style="stop-color:#1a1258;stop-opacity:1;" offset="0.0273438"/><stop style="stop-color:#1a1359;stop-opacity:1;" offset="0.03125"/><stop style="stop-color:#1a1359;stop-opacity:1;" offset="0.0351563"/><stop style="stop-color:#1a135a;stop-opacity:1;" offset="0.0390625"/><stop style="stop-color:#1a135b;stop-opacity:1;" offset="0.0429688"/><stop style="stop-color:#1b145b;stop-opacity:1;" offset="0.046875"/><stop style="stop-color:#1b145c;stop-opacity:1;" offset="0.0507813"/><stop style="stop-color:#1b145c;stop-opacity:1;" offset="0.0546875"/><stop style="stop-color:#1b155d;stop-opacity:1;" offset="0.0585938"/><stop style="stop-color:#1b155e;stop-opacity:1;" offset="0.0625"/><stop style="stop-color:#1b155e;stop-opacity:1;" offset="0.0664062"/><stop style="stop-color:#1b165f;stop-opacity:1;" offset="0.0703125"/><stop style="stop-color:#1b1660;stop-opacity:1;" offset="0.0742188"/><stop style="stop-color:#1b1660;stop-opacity:1;" offset="0.078125"/><stop style="stop-color:#1b1761;stop-opacity:1;" offset="0.0820313"/><stop style="stop-color:#1b1761;stop-opacity:1;" offset="0.0859375"/><stop style="stop-color:#1b1762;stop-opacity:1;" offset="0.0898438"/><stop style="stop-color:#1b1763;stop-opacity:1;" offset="0.09375"/><stop style="stop-color:#1b1863;stop-opacity:1;" offset="0.0976563"/><stop style="stop-color:#1b1864;stop-opacity:1;" offset="0.101563"/><stop style="stop-color:#1b1864;stop-opacity:1;" offset="0.105469"/><stop style="stop-color:#1b1965;stop-opacity:1;" offset="0.109375"/><stop style="stop-color:#1b1966;stop-opacity:1;" offset="0.113281"/><stop style="stop-color:#1b1966;stop-opacity:1;" offset="0.117188"/><stop style="stop-color:#1b1a67;stop-opacity:1;" offset="0.121094"/><stop style="stop-color:#1b1a68;stop-opacity:1;" offset="0.125"/><stop style="stop-color:#1b1a68;stop-opacity:1;" offset="0.128906"/><stop style="stop-color:#1b1b69;stop-opacity:1;" offset="0.132812"/><stop style="stop-color:#1c1b69;stop-opacity:1;" offset="0.136719"/><stop style="stop-color:#1c1b6a;stop-opacity:1;" offset="0.140625"/><stop style="stop-color:#1c1b6b;stop-opacity:1;" offset="0.144531"/><stop style="stop-color:#1c1c6b;stop-opacity:1;" offset="0.148438"/><stop style="stop-color:#1c1c6c;stop-opacity:1;" offset="0.152344"/><stop style="stop-color:#1c1c6c;stop-opacity:1;" offset="0.15625"/><stop style="stop-color:#1c1d6d;stop-opacity:1;" offset="0.160156"/><stop style="stop-color:#1c1d6e;stop-opacity:1;" offset="0.164062"/><stop style="stop-color:#1c1d6e;stop-opacity:1;" offset="0.167969"/><stop style="stop-color:#1c1e6f;stop-opacity:1;" offset="0.171875"/><stop style="stop-color:#1c1e70;stop-opacity:1;" offset="0.175781"/><stop style="stop-color:#1c1e70;stop-opacity:1;" offset="0.179688"/><stop style="stop-color:#1c1f71;stop-opacity:1;" offset="0.183594"/><stop style="stop-color:#1c1f71;stop-opacity:1;" offset="0.1875"/><stop style="stop-color:#1c1f72;stop-opacity:1;" offset="0.191406"/><stop style="stop-color:#1c2073;stop-opacity:1;" offset="0.195312"/><stop style="stop-color:#1c2073;stop-opacity:1;" offset="0.199219"/><stop style="stop-color:#1c2074;stop-opacity:1;" offset="0.203125"/><stop style="stop-color:#1c2074;stop-opacity:1;" offset="0.207031"/><stop style="stop-color:#1c2175;stop-opacity:1;" offset="0.210938"/><stop style="stop-color:#1c2176;stop-opacity:1;" offset="0.214844"/><stop style="stop-color:#1c2176;stop-opacity:1;" offset="0.21875"/><stop style="stop-color:#1c2277;stop-opacity:1;" offset="0.222656"/><stop style="stop-color:#1c2277;stop-opacity:1;" offset="0.226562"/><stop style="stop-color:#1d2278;stop-opacity:1;" offset="0.230469"/><stop style="stop-color:#1d2379;stop-opacity:1;" offset="0.234375"/><stop style="stop-color:#1d2379;stop-opacity:1;" offset="0.238281"/><stop style="stop-color:#1d237a;stop-opacity:1;" offset="0.242188"/><stop style="stop-color:#1d247b;stop-opacity:1;" offset="0.246094"/><stop style="stop-color:#1d247b;stop-opacity:1;" offset="0.25"/><stop style="stop-color:#1d247c;stop-opacity:1;" offset="0.253906"/><stop style="stop-color:#1d247c;stop-opacity:1;" offset="0.257812"/><stop style="stop-color:#1d257d;stop-opacity:1;" offset="0.261719"/><stop style="stop-color:#1d257e;stop-opacity:1;" offset="0.265625"/><stop style="stop-color:#1d257e;stop-opacity:1;" offset="0.269531"/><stop style="stop-color:#1d267f;stop-opacity:1;" offset="0.273438"/><stop style="stop-color:#1d267f;stop-opacity:1;" offset="0.277344"/><stop style="stop-color:#1d2680;stop-opacity:1;" offset="0.28125"/><stop style="stop-color:#1d2781;stop-opacity:1;" offset="0.285156"/><stop style="stop-color:#1d2781;stop-opacity:1;" offset="0.289062"/><stop style="stop-color:#1d2782;stop-opacity:1;" offset="0.292969"/><stop style="stop-color:#1d2883;stop-opacity:1;" offset="0.296875"/><stop style="stop-color:#1d2883;stop-opacity:1;" offset="0.300781"/><stop style="stop-color:#1d2884;stop-opacity:1;" offset="0.304688"/><stop style="stop-color:#1d2884;stop-opacity:1;" offset="0.308594"/><stop style="stop-color:#1d2985;stop-opacity:1;" offset="0.3125"/><stop style="stop-color:#1d2986;stop-opacity:1;" offset="0.316406"/><stop style="stop-color:#1e2986;stop-opacity:1;" offset="0.320312"/><stop style="stop-color:#1e2a87;stop-opacity:1;" offset="0.324219"/><stop style="stop-color:#1e2a87;stop-opacity:1;" offset="0.328125"/><stop style="stop-color:#1e2a88;stop-opacity:1;" offset="0.332031"/><stop style="stop-color:#1e2b89;stop-opacity:1;" offset="0.335938"/><stop style="stop-color:#1e2b89;stop-opacity:1;" offset="0.339844"/><stop style="stop-color:#1e2b8a;stop-opacity:1;" offset="0.34375"/><stop style="stop-color:#1e2c8a;stop-opacity:1;" offset="0.347656"/><stop style="stop-color:#1e2c8b;stop-opacity:1;" offset="0.351562"/><stop style="stop-color:#1e2c8c;stop-opacity:1;" offset="0.355469"/><stop style="stop-color:#1e2c8c;stop-opacity:1;" offset="0.359375"/><stop style="stop-color:#1e2d8d;stop-opacity:1;" offset="0.363281"/><stop style="stop-color:#1e2d8e;stop-opacity:1;" offset="0.367188"/><stop style="stop-color:#1e2d8e;stop-opacity:1;" offset="0.371094"/><stop style="stop-color:#1e2e8f;stop-opacity:1;" offset="0.375"/><stop style="stop-color:#1e2e8f;stop-opacity:1;" offset="0.378906"/><stop style="stop-color:#1e2e90;stop-opacity:1;" offset="0.382812"/><stop style="stop-color:#1e2f91;stop-opacity:1;" offset="0.386719"/><stop style="stop-color:#1e2f91;stop-opacity:1;" offset="0.390625"/><stop style="stop-color:#1e2f92;stop-opacity:1;" offset="0.394531"/><stop style="stop-color:#1e3092;stop-opacity:1;" offset="0.398438"/><stop style="stop-color:#1e3093;stop-opacity:1;" offset="0.402344"/><stop style="stop-color:#1e3094;stop-opacity:1;" offset="0.40625"/><stop style="stop-color:#1f3094;stop-opacity:1;" offset="0.410156"/><stop style="stop-color:#1f3195;stop-opacity:1;" offset="0.414062"/><stop style="stop-color:#1f3196;stop-opacity:1;" offset="0.417969"/><stop style="stop-color:#1f3196;stop-opacity:1;" offset="0.421875"/><stop style="stop-color:#1f3297;stop-opacity:1;" offset="0.425781"/><stop style="stop-color:#1f3297;stop-opacity:1;" offset="0.429688"/><stop style="stop-color:#1f3298;stop-opacity:1;" offset="0.433594"/><stop style="stop-color:#1f3399;stop-opacity:1;" offset="0.4375"/><stop style="stop-color:#1f3399;stop-opacity:1;" offset="0.441406"/><stop style="stop-color:#1f339a;stop-opacity:1;" offset="0.445312"/><stop style="stop-color:#1f349a;stop-opacity:1;" offset="0.449219"/><stop style="stop-color:#1f349b;stop-opacity:1;" offset="0.453125"/><stop style="stop-color:#1f349c;stop-opacity:1;" offset="0.457031"/><stop style="stop-color:#1f359c;stop-opacity:1;" offset="0.460938"/><stop style="stop-color:#1f359d;stop-opacity:1;" offset="0.464844"/><stop style="stop-color:#1f359e;stop-opacity:1;" offset="0.46875"/><stop style="stop-color:#1f359e;stop-opacity:1;" offset="0.472656"/><stop style="stop-color:#1f369f;stop-opacity:1;" offset="0.476563"/><stop style="stop-color:#1f369f;stop-opacity:1;" offset="0.480469"/><stop style="stop-color:#1f36a0;stop-opacity:1;" offset="0.484375"/><stop style="stop-color:#1f37a1;stop-opacity:1;" offset="0.488281"/><stop style="stop-color:#1f37a1;stop-opacity:1;" offset="0.492188"/><stop style="stop-color:#1f37a2;stop-opacity:1;" offset="0.496094"/><stop style="stop-color:#1f38a2;stop-opacity:1;" offset="0.5"/><stop style="stop-color:#2038a3;stop-opacity:1;" offset="0.503906"/><stop style="stop-color:#2038a4;stop-opacity:1;" offset="0.507812"/><stop style="stop-color:#2039a4;stop-opacity:1;" offset="0.511719"/><stop style="stop-color:#2039a5;stop-opacity:1;" offset="0.515625"/><stop style="stop-color:#2039a5;stop-opacity:1;" offset="0.519531"/><stop style="stop-color:#2039a6;stop-opacity:1;" offset="0.523438"/><stop style="stop-color:#203aa7;stop-opacity:1;" offset="0.527344"/><stop style="stop-color:#203aa7;stop-opacity:1;" offset="0.53125"/><stop style="stop-color:#203aa8;stop-opacity:1;" offset="0.535156"/><stop style="stop-color:#203ba9;stop-opacity:1;" offset="0.539063"/><stop style="stop-color:#203ba9;stop-opacity:1;" offset="0.542969"/><stop style="stop-color:#203baa;stop-opacity:1;" offset="0.546875"/><stop style="stop-color:#203caa;stop-opacity:1;" offset="0.550781"/><stop style="stop-color:#203cab;stop-opacity:1;" offset="0.554688"/><stop style="stop-color:#203cac;stop-opacity:1;" offset="0.558594"/><stop style="stop-color:#203dac;stop-opacity:1;" offset="0.5625"/><stop style="stop-color:#203dad;stop-opacity:1;" offset="0.566406"/><stop style="stop-color:#203dad;stop-opacity:1;" offset="0.570312"/><stop style="stop-color:#203dae;stop-opacity:1;" offset="0.574219"/><stop style="stop-color:#203eaf;stop-opacity:1;" offset="0.578125"/><stop style="stop-color:#203eaf;stop-opacity:1;" offset="0.582031"/><stop style="stop-color:#203eb0;stop-opacity:1;" offset="0.585938"/><stop style="stop-color:#203fb1;stop-opacity:1;" offset="0.589844"/><stop style="stop-color:#213fb1;stop-opacity:1;" offset="0.59375"/><stop style="stop-color:#213fb2;stop-opacity:1;" offset="0.597656"/><stop style="stop-color:#2140b2;stop-opacity:1;" offset="0.601563"/><stop style="stop-color:#2140b3;stop-opacity:1;" offset="0.605469"/><stop style="stop-color:#2140b4;stop-opacity:1;" offset="0.609375"/><stop style="stop-color:#2141b4;stop-opacity:1;" offset="0.613281"/><stop style="stop-color:#2141b5;stop-opacity:1;" offset="0.617188"/><stop style="stop-color:#2141b5;stop-opacity:1;" offset="0.621094"/><stop style="stop-color:#2141b6;stop-opacity:1;" offset="0.625"/><stop style="stop-color:#2142b7;stop-opacity:1;" offset="0.628906"/><stop style="stop-color:#2142b7;stop-opacity:1;" offset="0.632812"/><stop style="stop-color:#2142b8;stop-opacity:1;" offset="0.636719"/><stop style="stop-color:#2143b9;stop-opacity:1;" offset="0.640625"/><stop style="stop-color:#2143b9;stop-opacity:1;" offset="0.644531"/><stop style="stop-color:#2143ba;stop-opacity:1;" offset="0.648438"/><stop style="stop-color:#2144ba;stop-opacity:1;" offset="0.652344"/><stop style="stop-color:#2144bb;stop-opacity:1;" offset="0.65625"/><stop style="stop-color:#2144bc;stop-opacity:1;" offset="0.660156"/><stop style="stop-color:#2145bc;stop-opacity:1;" offset="0.664063"/><stop style="stop-color:#2145bd;stop-opacity:1;" offset="0.667969"/><stop style="stop-color:#2145bd;stop-opacity:1;" offset="0.671875"/><stop style="stop-color:#2145be;stop-opacity:1;" offset="0.675781"/><stop style="stop-color:#2146bf;stop-opacity:1;" offset="0.679688"/><stop style="stop-color:#2246bf;stop-opacity:1;" offset="0.683594"/><stop style="stop-color:#2246c0;stop-opacity:1;" offset="0.6875"/><stop style="stop-color:#2247c0;stop-opacity:1;" offset="0.691406"/><stop style="stop-color:#2247c1;stop-opacity:1;" offset="0.695312"/><stop style="stop-color:#2247c2;stop-opacity:1;" offset="0.699219"/><stop style="stop-color:#2248c2;stop-opacity:1;" offset="0.703125"/><stop style="stop-color:#2248c3;stop-opacity:1;" offset="0.707031"/><stop style="stop-color:#2248c4;stop-opacity:1;" offset="0.710938"/><stop style="stop-color:#2249c4;stop-opacity:1;" offset="0.714844"/><stop style="stop-color:#2249c5;stop-opacity:1;" offset="0.71875"/><stop style="stop-color:#2249c5;stop-opacity:1;" offset="0.722656"/><stop style="stop-color:#2249c6;stop-opacity:1;" offset="0.726563"/><stop style="stop-color:#224ac7;stop-opacity:1;" offset="0.730469"/><stop style="stop-color:#224ac7;stop-opacity:1;" offset="0.734375"/><stop style="stop-color:#224ac8;stop-opacity:1;" offset="0.738281"/><stop style="stop-color:#224bc8;stop-opacity:1;" offset="0.742188"/><stop style="stop-color:#224bc9;stop-opacity:1;" offset="0.746094"/><stop style="stop-color:#224bca;stop-opacity:1;" offset="0.75"/><stop style="stop-color:#224cca;stop-opacity:1;" offset="0.753906"/><stop style="stop-color:#224ccb;stop-opacity:1;" offset="0.757812"/><stop style="stop-color:#224ccc;stop-opacity:1;" offset="0.761719"/><stop style="stop-color:#224dcc;stop-opacity:1;" offset="0.765625"/><stop style="stop-color:#224dcd;stop-opacity:1;" offset="0.769531"/><stop style="stop-color:#224dcd;stop-opacity:1;" offset="0.773437"/><stop style="stop-color:#234ece;stop-opacity:1;" offset="0.777344"/><stop style="stop-color:#234ecf;stop-opacity:1;" offset="0.78125"/><stop style="stop-color:#234ecf;stop-opacity:1;" offset="0.785156"/><stop style="stop-color:#234ed0;stop-opacity:1;" offset="0.789063"/><stop style="stop-color:#234fd0;stop-opacity:1;" offset="0.792969"/><stop style="stop-color:#234fd1;stop-opacity:1;" offset="0.796875"/><stop style="stop-color:#234fd2;stop-opacity:1;" offset="0.800781"/><stop style="stop-color:#2350d2;stop-opacity:1;" offset="0.804688"/><stop style="stop-color:#2350d3;stop-opacity:1;" offset="0.808594"/><stop style="stop-color:#2350d4;stop-opacity:1;" offset="0.8125"/><stop style="stop-color:#2351d4;stop-opacity:1;" offset="0.816406"/><stop style="stop-color:#2351d5;stop-opacity:1;" offset="0.820312"/><stop style="stop-color:#2351d5;stop-opacity:1;" offset="0.824219"/><stop style="stop-color:#2352d6;stop-opacity:1;" offset="0.828125"/><stop style="stop-color:#2352d7;stop-opacity:1;" offset="0.832031"/><stop style="stop-color:#2352d7;stop-opacity:1;" offset="0.835937"/><stop style="stop-color:#2352d8;stop-opacity:1;" offset="0.839844"/><stop style="stop-color:#2353d8;stop-opacity:1;" offset="0.84375"/><stop style="stop-color:#2353d9;stop-opacity:1;" offset="0.847656"/><stop style="stop-color:#2353da;stop-opacity:1;" offset="0.851563"/><stop style="stop-color:#2354da;stop-opacity:1;" offset="0.855469"/><stop style="stop-color:#2354db;stop-opacity:1;" offset="0.859375"/><stop style="stop-color:#2354db;stop-opacity:1;" offset="0.863281"/><stop style="stop-color:#2455dc;stop-opacity:1;" offset="0.867188"/><stop style="stop-color:#2455dd;stop-opacity:1;" offset="0.871094"/><stop style="stop-color:#2455dd;stop-opacity:1;" offset="0.875"/><stop style="stop-color:#2456de;stop-opacity:1;" offset="0.878906"/><stop style="stop-color:#2456df;stop-opacity:1;" offset="0.882812"/><stop style="stop-color:#2456df;stop-opacity:1;" offset="0.886719"/><stop style="stop-color:#2456e0;stop-opacity:1;" offset="0.890625"/><stop style="stop-color:#2457e0;stop-opacity:1;" offset="0.894531"/><stop style="stop-color:#2457e1;stop-opacity:1;" offset="0.898437"/><stop style="stop-color:#2457e2;stop-opacity:1;" offset="0.902344"/><stop style="stop-color:#2458e2;stop-opacity:1;" offset="0.90625"/><stop style="stop-color:#2458e3;stop-opacity:1;" offset="0.910156"/><stop style="stop-color:#2458e3;stop-opacity:1;" offset="0.914063"/><stop style="stop-color:#2459e4;stop-opacity:1;" offset="0.917969"/><stop style="stop-color:#2459e5;stop-opacity:1;" offset="0.921875"/><stop style="stop-color:#2459e5;stop-opacity:1;" offset="0.925781"/><stop style="stop-color:#245ae6;stop-opacity:1;" offset="0.929688"/><stop style="stop-color:#245ae7;stop-opacity:1;" offset="0.933594"/><stop style="stop-color:#245ae7;stop-opacity:1;" offset="0.9375"/><stop style="stop-color:#245ae8;stop-opacity:1;" offset="0.941406"/><stop style="stop-color:#245be8;stop-opacity:1;" offset="0.945312"/><stop style="stop-color:#245be9;stop-opacity:1;" offset="0.949219"/><stop style="stop-color:#245bea;stop-opacity:1;" offset="0.953125"/><stop style="stop-color:#255cea;stop-opacity:1;" offset="0.957031"/><stop style="stop-color:#255ceb;stop-opacity:1;" offset="0.960937"/><stop style="stop-color:#255ceb;stop-opacity:1;" offset="0.964844"/><stop style="stop-color:#255dec;stop-opacity:1;" offset="0.96875"/><stop style="stop-color:#255ded;stop-opacity:1;" offset="0.972656"/><stop style="stop-color:#255ded;stop-opacity:1;" offset="0.976563"/><stop style="stop-color:#255eee;stop-opacity:1;" offset="0.980469"/><stop style="stop-color:#255eef;stop-opacity:1;" offset="0.984375"/><stop style="stop-color:#255eef;stop-opacity:1;" offset="0.988281"/><stop style="stop-color:#255ef0;stop-opacity:1;" offset="0.992188"/><stop style="stop-color:#255ff0;stop-opacity:1;" offset="0.996094"/><stop style="stop-color:#255ff1;stop-opacity:1;" offset="1"/></linearGradient><clipPath id="a61cb0c15f"><path d="M 124 83.347656 L 250.714844 83.347656 L 250.714844 240 L 124 240 Z M 124 83.347656 "/></clipPath><clipPath id="99767086ba"><path d="M 169.054688 165.859375 L 205.804688 165.859375 L 205.804688 221.359375 L 169.054688 221.359375 Z M 169.054688 165.859375 "/></clipPath></defs><g id="cd9d494c8a"><g clip-rule="nonzero" clip-path="url(#c139a78b2c)"><g clip-rule="nonzero" clip-path="url(#3742f1f416)"><path style=" stroke:none;fill-rule:nonzero;fill:url(#9e50684886);" d="M 54.375 54.375 L 54.375 320.625 L 320.625 320.625 L 320.625 54.375 Z M 54.375 54.375 "/></g></g><g clip-rule="nonzero" clip-path="url(#a61cb0c15f)"><path style=" stroke:none;fill-rule:nonzero;fill:#ffffff;fill-opacity:1;" d="M 142.632812 239.824219 L 232.050781 239.824219 C 232.660156 239.820312 233.265625 239.792969 233.875 239.730469 C 234.480469 239.671875 235.082031 239.582031 235.683594 239.460938 C 236.28125 239.339844 236.871094 239.191406 237.453125 239.015625 C 238.039062 238.839844 238.609375 238.632812 239.175781 238.398438 C 239.738281 238.164062 240.289062 237.90625 240.828125 237.617188 C 241.363281 237.328125 241.886719 237.015625 242.394531 236.675781 C 242.898438 236.335938 243.390625 235.972656 243.859375 235.585938 C 244.332031 235.199219 244.785156 234.792969 245.214844 234.359375 C 245.644531 233.929688 246.054688 233.476562 246.441406 233.007812 C 246.828125 232.535156 247.191406 232.046875 247.53125 231.539062 C 247.871094 231.03125 248.183594 230.507812 248.472656 229.972656 C 248.757812 229.433594 249.019531 228.882812 249.253906 228.320312 C 249.488281 227.757812 249.691406 227.183594 249.871094 226.597656 C 250.046875 226.015625 250.195312 225.425781 250.316406 224.828125 C 250.433594 224.230469 250.523438 223.625 250.585938 223.019531 C 250.644531 222.414062 250.675781 221.804688 250.675781 221.195312 L 250.675781 130.503906 C 250.683594 128.03125 250.214844 125.652344 249.269531 123.367188 C 248.320312 121.085938 246.972656 119.070312 245.21875 117.328125 L 216.695312 88.804688 C 214.953125 87.050781 212.9375 85.703125 210.65625 84.753906 C 208.371094 83.808594 205.992188 83.339844 203.519531 83.347656 L 142.632812 83.347656 C 142.023438 83.347656 141.414062 83.378906 140.808594 83.4375 C 140.203125 83.5 139.597656 83.589844 139 83.707031 C 138.402344 83.828125 137.8125 83.976562 137.230469 84.152344 C 136.644531 84.332031 136.070312 84.535156 135.507812 84.769531 C 134.945312 85.003906 134.394531 85.265625 133.855469 85.550781 C 133.320312 85.839844 132.796875 86.152344 132.289062 86.492188 C 131.78125 86.832031 131.292969 87.195312 130.824219 87.582031 C 130.351562 87.96875 129.898438 88.378906 129.46875 88.808594 C 129.039062 89.238281 128.628906 89.691406 128.242188 90.164062 C 127.855469 90.632812 127.492188 91.125 127.152344 91.628906 C 126.8125 92.136719 126.5 92.660156 126.210938 93.199219 C 125.925781 93.734375 125.664062 94.285156 125.429688 94.847656 C 125.195312 95.414062 124.992188 95.984375 124.8125 96.570312 C 124.636719 97.152344 124.488281 97.742188 124.367188 98.339844 C 124.246094 98.941406 124.15625 99.542969 124.097656 100.148438 C 124.039062 100.757812 124.007812 101.363281 124.007812 101.972656 L 124.007812 221.195312 C 124.007812 221.804688 124.039062 222.414062 124.097656 223.019531 C 124.15625 223.625 124.246094 224.230469 124.367188 224.828125 C 124.488281 225.425781 124.636719 226.015625 124.8125 226.597656 C 124.992188 227.183594 125.195312 227.757812 125.429688 228.320312 C 125.664062 228.882812 125.925781 229.433594 126.210938 229.972656 C 126.5 230.507812 126.8125 231.03125 127.152344 231.539062 C 127.492188 232.046875 127.855469 232.535156 128.242188 233.007812 C 128.628906 233.476562 129.039062 233.929688 129.46875 234.359375 C 129.898438 234.792969 130.351562 235.199219 130.824219 235.585938 C 131.292969 235.972656 131.78125 236.335938 132.289062 236.675781 C 132.796875 237.015625 133.320312 237.328125 133.855469 237.617188 C 134.394531 237.90625 134.945312 238.164062 135.507812 238.398438 C 136.070312 238.632812 136.644531 238.839844 137.230469 239.015625 C 137.8125 239.191406 138.402344 239.339844 139 239.460938 C 139.597656 239.582031 140.203125 239.671875 140.808594 239.730469 C 141.414062 239.792969 142.023438 239.820312 142.632812 239.824219 Z M 205.96875 91.089844 C 208.078125 91.550781 209.898438 92.546875 211.425781 94.070312 L 239.953125 122.597656 C 241.476562 124.125 242.472656 125.945312 242.9375 128.054688 L 217.148438 128.054688 C 216.414062 128.054688 215.6875 127.980469 214.96875 127.835938 C 214.246094 127.691406 213.550781 127.480469 212.871094 127.199219 C 212.195312 126.917969 211.550781 126.574219 210.941406 126.167969 C 210.332031 125.757812 209.765625 125.296875 209.246094 124.777344 C 208.726562 124.257812 208.265625 123.691406 207.855469 123.082031 C 207.449219 122.472656 207.105469 121.828125 206.824219 121.152344 C 206.542969 120.472656 206.332031 119.777344 206.1875 119.054688 C 206.042969 118.335938 205.96875 117.609375 205.96875 116.875 Z M 131.457031 101.972656 C 131.457031 101.242188 131.53125 100.515625 131.675781 99.792969 C 131.816406 99.074219 132.03125 98.375 132.3125 97.699219 C 132.59375 97.019531 132.9375 96.378906 133.34375 95.765625 C 133.753906 95.15625 134.214844 94.59375 134.734375 94.074219 C 135.253906 93.554688 135.816406 93.09375 136.425781 92.683594 C 137.039062 92.277344 137.679688 91.933594 138.359375 91.652344 C 139.035156 91.371094 139.734375 91.15625 140.453125 91.015625 C 141.175781 90.871094 141.902344 90.796875 142.632812 90.796875 L 198.519531 90.796875 L 198.519531 116.875 C 198.519531 117.488281 198.550781 118.09375 198.609375 118.703125 C 198.671875 119.308594 198.761719 119.910156 198.878906 120.507812 C 199 121.109375 199.148438 121.699219 199.324219 122.28125 C 199.503906 122.867188 199.707031 123.4375 199.941406 124.003906 C 200.175781 124.566406 200.4375 125.117188 200.722656 125.652344 C 201.011719 126.191406 201.324219 126.714844 201.664062 127.222656 C 202.003906 127.726562 202.367188 128.21875 202.753906 128.6875 C 203.140625 129.160156 203.550781 129.609375 203.980469 130.042969 C 204.414062 130.472656 204.863281 130.882812 205.335938 131.269531 C 205.804688 131.65625 206.296875 132.019531 206.800781 132.359375 C 207.308594 132.699219 207.832031 133.011719 208.371094 133.300781 C 208.90625 133.585938 209.457031 133.847656 210.019531 134.082031 C 210.585938 134.316406 211.15625 134.519531 211.742188 134.699219 C 212.324219 134.875 212.914062 135.023438 213.515625 135.144531 C 214.113281 135.261719 214.714844 135.351562 215.320312 135.414062 C 215.929688 135.472656 216.535156 135.503906 217.148438 135.503906 L 243.226562 135.503906 L 243.226562 221.195312 C 243.226562 221.929688 243.152344 222.65625 243.007812 223.375 C 242.867188 224.09375 242.652344 224.792969 242.371094 225.46875 C 242.089844 226.148438 241.746094 226.792969 241.339844 227.402344 C 240.929688 228.011719 240.46875 228.574219 239.949219 229.09375 C 239.429688 229.613281 238.867188 230.074219 238.257812 230.484375 C 237.644531 230.890625 237.003906 231.234375 236.324219 231.515625 C 235.648438 231.796875 234.949219 232.011719 234.230469 232.15625 C 233.507812 232.296875 232.78125 232.371094 232.050781 232.371094 L 142.632812 232.371094 C 141.902344 232.371094 141.175781 232.296875 140.453125 232.15625 C 139.734375 232.011719 139.035156 231.796875 138.359375 231.515625 C 137.679688 231.234375 137.039062 230.890625 136.425781 230.484375 C 135.816406 230.078125 135.253906 229.613281 134.734375 229.09375 C 134.214844 228.574219 133.753906 228.011719 133.34375 227.402344 C 132.9375 226.792969 132.59375 226.148438 132.3125 225.46875 C 132.03125 224.792969 131.816406 224.09375 131.675781 223.375 C 131.53125 222.65625 131.457031 221.929688 131.457031 221.195312 Z M 131.457031 101.972656 "/></g><path style="fill:none;stroke-width:11;stroke-linecap:round;stroke-linejoin:miter;stroke:#ffffff;stroke-opacity:1;stroke-miterlimit:4;" d="M 5.498079 5.498489 L 59.034541 5.498489 " transform="matrix(0.75,0,0,0.75,139.099097,108.989414)"/><path style="fill:none;stroke-width:11;stroke-linecap:round;stroke-linejoin:miter;stroke:#ffffff;stroke-opacity:1;stroke-miterlimit:4;" d="M 5.498079 5.498482 L 73.383501 5.498482 " transform="matrix(0.75,0,0,0.75,139.099097,128.48942)"/><path style="fill:none;stroke-width:11;stroke-linecap:round;stroke-linejoin:miter;stroke:#ffffff;stroke-opacity:1;stroke-miterlimit:4;" d="M 5.49785 5.502142 L 95.701464 5.502142 " transform="matrix(0.74861,0,0,0.74861,139.099097,147.615415)"/><g clip-rule="nonzero" clip-path="url(#99767086ba)"><path style=" stroke:none;fill-rule:nonzero;fill:#ffffff;fill-opacity:1;" d="M 202.742188 179.277344 L 198.523438 179.277344 C 197.917969 176.507812 196.570312 174.039062 194.742188 172.003906 L 202.742188 172.003906 C 204.433594 172.003906 205.804688 170.632812 205.804688 168.941406 C 205.804688 167.25 204.433594 165.878906 202.742188 165.878906 L 172.117188 165.878906 C 170.425781 165.878906 169.054688 167.25 169.054688 168.941406 C 169.054688 170.632812 170.425781 172.003906 172.117188 172.003906 L 181.304688 172.003906 C 186.011719 172.003906 189.964844 175.058594 191.40625 179.277344 L 172.117188 179.277344 C 170.425781 179.277344 169.054688 180.648438 169.054688 182.339844 C 169.054688 184.03125 170.425781 185.402344 172.117188 185.402344 L 191.644531 185.402344 C 190.449219 190.019531 186.292969 193.441406 181.304688 193.441406 L 172.308594 193.441406 C 170.511719 193.441406 169.054688 194.898438 169.054688 196.699219 C 169.054688 197.589844 169.417969 198.390625 169.996094 198.980469 L 169.992188 198.980469 L 170.003906 198.996094 C 170.003906 198.996094 170.003906 198.996094 170.007812 198.996094 L 191.460938 220.175781 L 191.480469 220.167969 C 192.027344 220.675781 192.75 221.003906 193.554688 221.003906 C 195.246094 221.003906 196.617188 219.632812 196.617188 217.941406 C 196.617188 217.089844 196.269531 216.320312 195.703125 215.765625 L 178.242188 198.800781 C 180.121094 198.800781 182.355469 198.800781 182.835938 198.800781 C 190.796875 198.800781 197.363281 193 198.644531 185.402344 L 202.742188 185.402344 C 204.433594 185.402344 205.804688 184.03125 205.804688 182.339844 C 205.804688 180.648438 204.433594 179.277344 202.742188 179.277344 Z M 202.742188 179.277344 "/></g><g style="fill:#ffffff;fill-opacity:1;"><g transform="translate(106.392244, 280.118552)"><path style="stroke:none" d="M 18.40625 -7.140625 C 18.40625 -4.816406 17.566406 -2.984375 15.890625 -1.640625 C 14.222656 -0.304688 11.90625 0.359375 8.9375 0.359375 C 6.1875 0.359375 3.757812 -0.160156 1.65625 -1.203125 L 1.65625 -6.265625 C 3.382812 -5.484375 4.847656 -4.9375 6.046875 -4.625 C 7.253906 -4.3125 8.359375 -4.15625 9.359375 -4.15625 C 10.546875 -4.15625 11.457031 -4.378906 12.09375 -4.828125 C 12.738281 -5.285156 13.0625 -5.96875 13.0625 -6.875 C 13.0625 -7.375 12.921875 -7.820312 12.640625 -8.21875 C 12.359375 -8.613281 11.941406 -8.988281 11.390625 -9.34375 C 10.847656 -9.707031 9.738281 -10.289062 8.0625 -11.09375 C 6.5 -11.832031 5.320312 -12.539062 4.53125 -13.21875 C 3.75 -13.894531 3.125 -14.6875 2.65625 -15.59375 C 2.1875 -16.5 1.953125 -17.550781 1.953125 -18.75 C 1.953125 -21.03125 2.722656 -22.816406 4.265625 -24.109375 C 5.804688 -25.410156 7.9375 -26.0625 10.65625 -26.0625 C 11.988281 -26.0625 13.257812 -25.90625 14.46875 -25.59375 C 15.6875 -25.28125 16.957031 -24.835938 18.28125 -24.265625 L 16.53125 -20.015625 C 15.15625 -20.578125 14.019531 -20.96875 13.125 -21.1875 C 12.226562 -21.414062 11.347656 -21.53125 10.484375 -21.53125 C 9.453125 -21.53125 8.660156 -21.289062 8.109375 -20.8125 C 7.554688 -20.332031 7.28125 -19.707031 7.28125 -18.9375 C 7.28125 -18.457031 7.390625 -18.035156 7.609375 -17.671875 C 7.835938 -17.316406 8.191406 -16.972656 8.671875 -16.640625 C 9.160156 -16.304688 10.3125 -15.707031 12.125 -14.84375 C 14.53125 -13.6875 16.175781 -12.53125 17.0625 -11.375 C 17.957031 -10.226562 18.40625 -8.816406 18.40625 -7.140625 Z M 18.40625 -7.140625 "/></g></g><g style="fill:#ffffff;fill-opacity:1;"><g transform="translate(126.213913, 280.118552)"><path style="stroke:none" d="M 10.953125 -16.203125 C 9.816406 -16.203125 8.925781 -15.84375 8.28125 -15.125 C 7.632812 -14.40625 7.265625 -13.382812 7.171875 -12.0625 L 14.703125 -12.0625 C 14.671875 -13.382812 14.320312 -14.40625 13.65625 -15.125 C 12.988281 -15.84375 12.085938 -16.203125 10.953125 -16.203125 Z M 11.703125 0.359375 C 8.546875 0.359375 6.078125 -0.515625 4.296875 -2.265625 C 2.515625 -4.015625 1.625 -6.488281 1.625 -9.6875 C 1.625 -12.976562 2.445312 -15.519531 4.09375 -17.3125 C 5.738281 -19.113281 8.015625 -20.015625 10.921875 -20.015625 C 13.691406 -20.015625 15.847656 -19.222656 17.390625 -17.640625 C 18.941406 -16.066406 19.71875 -13.882812 19.71875 -11.09375 L 19.71875 -8.484375 L 7.046875 -8.484375 C 7.109375 -6.960938 7.5625 -5.773438 8.40625 -4.921875 C 9.25 -4.066406 10.429688 -3.640625 11.953125 -3.640625 C 13.140625 -3.640625 14.257812 -3.757812 15.3125 -4 C 16.363281 -4.25 17.460938 -4.644531 18.609375 -5.1875 L 18.609375 -1.03125 C 17.671875 -0.5625 16.671875 -0.210938 15.609375 0.015625 C 14.546875 0.242188 13.242188 0.359375 11.703125 0.359375 Z M 11.703125 0.359375 "/></g></g><g style="fill:#ffffff;fill-opacity:1;"><g transform="translate(147.476519, 280.118552)"><path style="stroke:none" d="M 20.953125 0 L 15.59375 0 L 15.59375 -11.484375 C 15.59375 -12.898438 15.335938 -13.960938 14.828125 -14.671875 C 14.328125 -15.378906 13.523438 -15.734375 12.421875 -15.734375 C 10.921875 -15.734375 9.835938 -15.234375 9.171875 -14.234375 C 8.503906 -13.234375 8.171875 -11.570312 8.171875 -9.25 L 8.171875 0 L 2.8125 0 L 2.8125 -19.65625 L 6.90625 -19.65625 L 7.625 -17.140625 L 7.921875 -17.140625 C 8.523438 -18.085938 9.347656 -18.800781 10.390625 -19.28125 C 11.441406 -19.769531 12.632812 -20.015625 13.96875 -20.015625 C 16.257812 -20.015625 17.992188 -19.394531 19.171875 -18.15625 C 20.359375 -16.925781 20.953125 -15.144531 20.953125 -12.8125 Z M 20.953125 0 "/></g></g><g style="fill:#ffffff;fill-opacity:1;"><g transform="translate(171.128972, 280.118552)"><path style="stroke:none" d="M 9.03125 0.359375 C 6.726562 0.359375 4.914062 -0.535156 3.59375 -2.328125 C 2.28125 -4.128906 1.625 -6.617188 1.625 -9.796875 C 1.625 -13.015625 2.289062 -15.519531 3.625 -17.3125 C 4.96875 -19.113281 6.816406 -20.015625 9.171875 -20.015625 C 11.648438 -20.015625 13.539062 -19.054688 14.84375 -17.140625 L 15.015625 -17.140625 C 14.742188 -18.609375 14.609375 -19.914062 14.609375 -21.0625 L 14.609375 -27.359375 L 19.984375 -27.359375 L 19.984375 0 L 15.875 0 L 14.84375 -2.546875 L 14.609375 -2.546875 C 13.390625 -0.609375 11.53125 0.359375 9.03125 0.359375 Z M 10.921875 -3.921875 C 12.285156 -3.921875 13.285156 -4.316406 13.921875 -5.109375 C 14.566406 -5.910156 14.921875 -7.265625 14.984375 -9.171875 L 14.984375 -9.75 C 14.984375 -11.863281 14.65625 -13.375 14 -14.28125 C 13.351562 -15.195312 12.296875 -15.65625 10.828125 -15.65625 C 9.628906 -15.65625 8.695312 -15.148438 8.03125 -14.140625 C 7.375 -13.128906 7.046875 -11.65625 7.046875 -9.71875 C 7.046875 -7.789062 7.378906 -6.34375 8.046875 -5.375 C 8.710938 -4.40625 9.671875 -3.921875 10.921875 -3.921875 Z M 10.921875 -3.921875 "/></g></g><g style="fill:#ffffff;fill-opacity:1;"><g transform="translate(193.902804, 280.118552)"><path style="stroke:none" d="M 3.234375 -25.703125 L 11.234375 -25.703125 C 14.878906 -25.703125 17.523438 -25.179688 19.171875 -24.140625 C 20.816406 -23.109375 21.640625 -21.460938 21.640625 -19.203125 C 21.640625 -17.660156 21.28125 -16.394531 20.5625 -15.40625 C 19.84375 -14.425781 18.882812 -13.835938 17.6875 -13.640625 L 17.6875 -13.46875 C 19.3125 -13.101562 20.484375 -12.421875 21.203125 -11.421875 C 21.929688 -10.429688 22.296875 -9.109375 22.296875 -7.453125 C 22.296875 -5.109375 21.445312 -3.28125 19.75 -1.96875 C 18.050781 -0.65625 15.75 0 12.84375 0 L 3.234375 0 Z M 8.6875 -15.515625 L 11.84375 -15.515625 C 13.320312 -15.515625 14.390625 -15.742188 15.046875 -16.203125 C 15.710938 -16.660156 16.046875 -17.414062 16.046875 -18.46875 C 16.046875 -19.457031 15.6875 -20.164062 14.96875 -20.59375 C 14.25 -21.019531 13.109375 -21.234375 11.546875 -21.234375 L 8.6875 -21.234375 Z M 8.6875 -11.203125 L 8.6875 -4.5 L 12.234375 -4.5 C 13.734375 -4.5 14.835938 -4.785156 15.546875 -5.359375 C 16.265625 -5.929688 16.625 -6.8125 16.625 -8 C 16.625 -10.132812 15.101562 -11.203125 12.0625 -11.203125 Z M 8.6875 -11.203125 "/></g></g><g style="fill:#ffffff;fill-opacity:1;"><g transform="translate(218.082429, 280.118552)"><path style="stroke:none" d="M 2.578125 -24.734375 C 2.578125 -26.484375 3.550781 -27.359375 5.5 -27.359375 C 7.445312 -27.359375 8.421875 -26.484375 8.421875 -24.734375 C 8.421875 -23.898438 8.175781 -23.25 7.6875 -22.78125 C 7.207031 -22.320312 6.476562 -22.09375 5.5 -22.09375 C 3.550781 -22.09375 2.578125 -22.972656 2.578125 -24.734375 Z M 8.171875 0 L 2.8125 0 L 2.8125 -19.65625 L 8.171875 -19.65625 Z M 8.171875 0 "/></g></g><g style="fill:#ffffff;fill-opacity:1;"><g transform="translate(229.065186, 280.118552)"><path style="stroke:none" d="M 8.171875 0 L 2.8125 0 L 2.8125 -27.359375 L 8.171875 -27.359375 Z M 8.171875 0 "/></g></g><g style="fill:#ffffff;fill-opacity:1;"><g transform="translate(240.047943, 280.118552)"><path style="stroke:none" d="M 8.171875 0 L 2.8125 0 L 2.8125 -27.359375 L 8.171875 -27.359375 Z M 8.171875 0 "/></g></g><g style="fill:#ffffff;fill-opacity:1;"><g transform="translate(251.0307, 280.118552)"><path style="stroke:none" d="M 16.484375 0 L 0.96875 0 L 0.96875 -3.171875 L 10.078125 -15.5625 L 1.515625 -15.5625 L 1.515625 -19.65625 L 16.171875 -19.65625 L 16.171875 -16.171875 L 7.3125 -4.09375 L 16.484375 -4.09375 Z M 16.484375 0 "/></g></g></g></svg>