<svg xmlns="http://www.w3.org/2000/svg" xmlns:xlink="http://www.w3.org/1999/xlink" xmlns:inkscape="http://www.inkscape.org/namespaces/inkscape" version="1.1" width="245" height="245" viewBox="0 0 245 245">
<defs>
<clipPath id="clip_0">
<path d="M0 0H245V245H0Z" clip-rule="evenodd"/>
</clipPath>
<clipPath id="clip_1">
<path d="M0 0H245V245H0Z" clip-rule="evenodd"/>
</clipPath>
<clipPath id="clip_2">
<path d="M0 0H245V245H0Z" clip-rule="evenodd"/>
</clipPath>
<clipPath id="clip_3">
<path d="M32.879995 29.866667H212.87999V209.86667H32.879995Z" clip-rule="evenodd"/>
</clipPath>
<clipPath id="clip_4">
<path transform="matrix(1,0,0,1,33,30)" d="M0 0H180V180H0Z" clip-rule="evenodd"/>
</clipPath>
<clipPath id="clip_5">
<path d="M0 0H245V245H0Z" clip-rule="evenodd"/>
</clipPath>
<clipPath id="clip_6">
<path d="M64.07645 59.958044H180.47644V151.63805H64.07645Z" clip-rule="evenodd"/>
</clipPath>
<clipPath id="clip_7">
<path transform="matrix(1,0,0,1,64,60)" d="M0 0H116V92H0Z" clip-rule="evenodd"/>
</clipPath>
<path id="font_8_54" d="M.5439453 .21694947C.5439453 .17264812 .53271487 .13331096 .5102539 .09893799 .48779298 .064575199 .45540367 .03786723 .41308595 .018814087 .37076823-.00023905437 .3211263-.009765625 .26416017-.009765625 .21663411-.009765625 .17675781-.0064290368 .14453125 .00024414063 .11230469 .006917318 .07877604 .018554688 .043945314 .03515625V.20703125C.080729167 .18815105 .11897787 .17342122 .1586914 .1628418 .19840496 .15226238 .23486328 .14697266 .2680664 .14697266 .29671226 .14697266 .31770835 .15194702 .3310547 .16189575 .34440104 .17185466 .35107423 .18466695 .35107423 .20033264 .35107423 .21010845 .34838868 .21865845 .34301759 .22598267 .33764649 .23331706 .32902018 .24072774 .31713868 .24821472 .30525718 .25571189 .27360026 .27102153 .22216797 .29414369 .17561849 .31532289 .14070638 .33584596 .11743164 .3557129 .0941569 .37557984 .0769043 .39838157 .06567383 .42411805 .05444336 .44985453 .048828126 .48031108 .048828126 .5154877 .048828126 .58128359 .072753909 .6325836 .12060547 .6693878 .16845703 .7062022 .23421224 .7246094 .3178711 .7246094 .3917643 .7246094 .4671224 .70751956 .5439453 .67333987L.48486329 .52441409C.4181315 .555013 .3605143 .5703125 .31201173 .5703125 .28694663 .5703125 .26871745 .5659027 .25732423 .55708315 .24593099 .54827377 .24023438 .53733828 .24023438 .52427676 .24023438 .51026919 .24747722 .49772645 .2619629 .48664857 .27644859 .47558085 .31575523 .4553884 .3798828 .42607118 .44140626 .39838157 .48413087 .36865745 .50805667 .3368988 .5319824 .30514018 .5439453 .26515708 .5439453 .21694947Z"/>
<path id="font_8_72" d="M.3330078-.009765625C.24088542-.009765625 .16935222 .014750163 .1184082 .06378174 .067464198 .11281332 .041992189 .18261719 .041992189 .27319337 .041992189 .36669923 .065592449 .4384562 .11279297 .48846437 .15999349 .5384725 .2273763 .56347659 .3149414 .56347659 .39827476 .56347659 .46264649 .54174807 .50805667 .49829103 .5534668 .45483399 .5761719 .3922526 .5761719 .31054688V.22558594H.23486328C.23616536 .19450887 .24747722 .1701355 .26879884 .15246582 .29012046 .13480632 .3191732 .12597656 .35595704 .12597656 .3894857 .12597656 .42032878 .12916565 .44848634 .13554383 .4766439 .141922 .50716146 .15280152 .54003909 .16818238V.030807496C.5100911 .015487671 .47916667 .0048980715 .44726563-.0009613037 .4153646-.006830851 .37727867-.009765625 .3330078-.009765625M.32177735 .43359376C.2993164 .43359376 .28051759 .42651368 .26538087 .41235353 .25024415 .39819337 .2413737 .37597657 .23876953 .34570313H.40283204C.402181 .37239585 .39461265 .39371745 .38012696 .40966798 .36564128 .4256185 .3461914 .43359376 .32177735 .43359376Z"/>
<path id="font_8_81" d="M.41503907 0V.30210877C.41503907 .33894349 .40974937 .36672975 .39916993 .38546754 .38859049 .40420533 .37158204 .41357423 .34814454 .41357423 .31591798 .41357423 .29264323 .4007009 .2783203 .37495423 .2639974 .34920756 .25683595 .3050486 .25683595 .24247742V0H.06591797V.55371096H.20996094L.23388672 .48529054H.24511719C.26139323 .51135256 .28393556 .53089907 .31274415 .54393008 .34155274 .55696108 .37467448 .56347659 .41210938 .56347659 .47330729 .56347659 .52091476 .5457204 .55493167 .51020815 .58894857 .47469584 .60595706 .42468263 .60595706 .36016847V0H.41503907Z"/>
<path id="font_8_71" d="M.23779297-.009765625C.19840496-.009765625 .16398113 .0014750162 .13452149 .023956299 .10506185 .04643758 .08227539 .07950338 .06616211 .12315369 .050048829 .16681417 .041992189 .21780396 .041992189 .27612306 .041992189 .366038 .060058595 .43640647 .096191409 .4872284 .13232422 .5380605 .18196614 .56347659 .24511719 .56347659 .27604167 .56347659 .30314128 .55728659 .32641603 .5449066 .34969078 .5325267 .370931 .511673 .39013673 .48234559H.39404298C.38785807 .5255788 .38476563 .56880697 .38476563 .61203V.7597656H.57714846V0H.43310548L.39208985 .069885257H.38476563C.35188804 .016784668 .30289714-.009765625 .23779297-.009765625M.31591798 .14111328C.34651695 .14111328 .36808268 .1507314 .38061524 .16996765 .3931478 .18921407 .39990235 .21889241 .4008789 .2590027V.27416993C.4008789 .3230896 .39388023 .3579 .3798828 .37860108 .3658854 .39931236 .34391276 .40966798 .31396485 .40966798 .28889976 .40966798 .26944987 .3978475 .25561524 .37420655 .2417806 .35056559 .23486328 .31689454 .23486328 .27319337 .23486328 .23014324 .24186199 .19736736 .25585938 .17486573 .26985679 .15236409 .2898763 .14111328 .31591798 .14111328Z"/>
<path id="font_8_37" d="M.07714844 .7138672H.32617188C.4231771 .7138672 .49519859 .6994832 .5422363 .67071536 .5892741 .64194747 .61279299 .59717306 .61279299 .5363922 .61279299 .49640403 .60253909 .4622701 .58203127 .43399049 .56152346 .40571086 .5345052 .3875122 .50097659 .37939454V.37451173C.5452474 .3627726 .5773112 .34321086 .59716799 .31582643 .6170247 .28845216 .6269531 .2529297 .6269531 .20925904 .6269531 .144399 .6026204 .093307498 .5539551 .055984498 .50528976 .018661499 .43896485 0 .35498048 0H.07714844V.7138672M.27001954 .4404297H.328125C.35579429 .4404297 .37719728 .44610087 .39233399 .45744325 .4074707 .46879579 .41503907 .48566184 .41503907 .5080414 .41503907 .54792788 .38476563 .5678711 .32421876 .5678711H.27001954V.4404297M.27001954 .2993164V.14892578H.33789063C.39811198 .14892578 .42822267 .17439778 .42822267 .2253418 .42822267 .2491862 .42016603 .2674764 .40405274 .2802124 .38793946 .2929484 .36458335 .2993164 .33398438 .2993164H.27001954Z"/>
<path id="font_8_76" d="M.2578125 0H.06689453V.55371096H.2578125V0M.06201172 .69140627C.06201172 .72005209 .06998698 .7413737 .0859375 .7553711 .10188802 .76936849 .12760417 .7763672 .16308594 .7763672 .1985677 .7763672 .22444661 .76920577 .24072266 .7548828 .2569987 .7405599 .26513673 .71940109 .26513673 .69140627 .26513673 .6354167 .2311198 .6074219 .16308594 .6074219 .095703128 .6074219 .06201172 .6354167 .06201172 .69140627Z"/>
<path id="font_8_79" d="M.25683595 0H.06591797V.7597656H.25683595V0Z"/>
<path id="font_8_93" d="M.4819336 0H.023925782V.10888672L.2529297 .40771485H.037109376V.55371096H.4711914V.43554688L.25195313 .1459961H.4819336V0Z"/>
</defs>
<g>
<g clip-path="url(#clip_0)">
<path d="M0 0H245V245H0Z" fill="#ffffff"/>
</g>
<g clip-path="url(#clip_1)">
<g>
<g clip-path="url(#clip_2)">
<g clip-path="url(#clip_3)">
<g>
<g clip-path="url(#clip_4)">
<path transform="matrix(3.6000002,0,0,3.6000002,32.879995,29.866667)" d="M25 0C38.80712 0 50 11.192881 50 25 50 38.80712 38.80712 50 25 50 11.192881 50 0 38.80712 0 25 0 11.192881 11.192881 0 25 0Z" fill="#d7e1ff"/>
</g>
</g>
</g>
</g>
</g>
<g>
<g clip-path="url(#clip_5)">
<g clip-path="url(#clip_6)">
<g>
<g clip-path="url(#clip_7)">
<path transform="matrix(.22734376,0,0,.2269307,64.07645,59.958044)" d="M502.16999 159.40001C501.71 160.14002 496.02 167.99 484.65998 183.68001 466.96998 208.08 466.98997 208 466.62998 208.44 460.43998 218.3 462.13999 239.09 494.12998 286.7 519.44998 324.36003 487.75999 374.43 443.02998 366.82 408.97999 361.07 368.25999 344.93 327.56999 338.92 283.15998 331.73 173.68999 374.21003 163.61998 368.49003 100.51997 372.50004 70.51998 320.92 80.00998 274.71003 86.15998 238.11002 107.72998 239.18003 120.06998 206.10002 139.85997 153.42002 94.70998 114.18002 111.67998 71.57002 127.25 31.51 190.87 15.48 228.17 40 281.57 71.15 323.78 98.149997 372.93 65.9 428.58 37.86 485.96 53.120004 503.83003 85.53 514.58999 105.02 515.41 138.61 502.16999 159.40001Z" fill="#9fb7ff"/>
<path transform="matrix(.22734376,0,0,.2269307,64.07645,59.958044)" d="M334.75 133.75C321.12 133.75 310.07 122.7 310.07 109.07V0H168.26C153.62-.01 141.75 11.84 141.73999 26.48 141.73999 26.49 141.73999 26.51 141.73999 26.52V76.12H187.65C192.07999 76.12 195.65999 79.71 195.65999 84.130008V95.15C195.66999 99.33 192.46999 102.82 188.30998 103.16H120.54998C116.11998 103.16 112.53998 106.75 112.53998 111.170009V122.19C112.53998 126.62 116.129978 130.2 120.54998 130.2H170C174.43 130.2 178.01 133.79 178.01 138.20999V149.24999C178.01 153.67998 174.42 157.25998 170 157.25998H8.01C3.5800005 157.25998 0 160.84998 0 165.26998V178.26998C0 182.69997 3.59 186.27997 8.01 186.27997H199.7C204.08 186.34998 207.59 189.90998 207.59 194.28997V206.54996C207.59 210.97995 204 214.55995 199.58 214.55995H76.979999C72.549999 214.55995 68.96999 218.14995 68.96999 222.56995V234.78995C68.96999 239.21994 72.55999 242.79994 76.979999 242.79994H141.73999V377.60993C141.82999 392.19993 153.66999 403.97993 168.26 403.98994H417.97999C432.62998 403.96995 444.49998 392.07994 444.49998 377.42994V133.75H334.75ZM415.47 366.43C415.46 367.9 414.26 369.09 412.79 369.09H177.61C176.14 369.09 174.94 367.9 174.93001 366.43V363.43C174.93001 361.94999 176.13 360.75 177.61 360.75H412.78999C414.27 360.75 415.46998 361.95 415.46998 363.43L415.47 366.43ZM415.47 327.21C415.46 328.68 414.26 329.87 412.79 329.87H177.61C176.14 329.87 174.94 328.68 174.93001 327.21V324.19C174.93001 322.72 176.12001 321.53 177.59001 321.53 177.6 321.53 177.6 321.53 177.61002 321.53H412.79C414.26 321.52 415.46003 322.7 415.47 324.17 415.47 324.18003 415.47 324.18003 415.47 324.19V327.21ZM415.47 287.97C415.47 289.44 414.28 290.63 412.81 290.63 412.8 290.63 412.8 290.63 412.79 290.63H177.61C176.14 290.64 174.94 289.46 174.93001 287.99 174.93001 287.97999 174.93001 287.97999 174.93001 287.97V284.95C174.94 283.48 176.14002 282.29 177.61 282.29H412.78999C414.25999 282.29 415.46 283.48 415.46998 284.95L415.47 287.97ZM415.47 248.73C415.47 250.20999 414.27 251.40999 412.79 251.40999H177.61C176.13 251.40999 174.93001 250.20999 174.93001 248.73V245.73C174.93001 244.25 176.13 243.05 177.61 243.05H412.78999C414.27 243.05 415.46998 244.25 415.46998 245.73L415.47 248.73Z" fill="#2663ff"/>
<path transform="matrix(.22734376,0,0,.2269307,64.07645,59.958044)" d="M51.48 102.82H94.53C97.97 102.82 100.76 105.61 100.76 109.05V123.53C100.76 126.97 97.97 129.76 94.53 129.76H51.48C48.04 129.76 45.25 126.96999 45.25 123.52999V109.04999C45.25 105.61 48.039999 102.82 51.48 102.82Z" fill="#2663ff"/>
<path transform="matrix(.22734376,0,0,.2269307,64.07645,59.958044)" d="M326.80003 0 444.52003 117.71999H348.63C336.57 117.71999 326.80003 107.939998 326.80003 95.88999V0Z" fill="#2663ff"/>
</g>
</g>
</g>
</g>
</g>
<use data-text="S" xlink:href="#font_8_54" transform="matrix(21.36,0,0,-21.36,72.45689,175.90579)" fill="#2663ff"/>
<use data-text="e" xlink:href="#font_8_72" transform="matrix(21.36,0,0,-21.36,84.696887,175.90579)" fill="#2663ff"/>
<use data-text="n" xlink:href="#font_8_81" transform="matrix(21.36,0,0,-21.36,97.89689,175.90579)" fill="#2663ff"/>
<use data-text="d" xlink:href="#font_8_71" transform="matrix(21.36,0,0,-21.36,112.29689,175.90579)" fill="#2663ff"/>
<use data-text="B" xlink:href="#font_8_37" transform="matrix(21.36,0,0,-21.36,125.97688,175.90579)" fill="#2663ff"/>
<use data-text="i" xlink:href="#font_8_76" transform="matrix(21.36,0,0,-21.36,140.37689,175.90579)" fill="#2663ff"/>
<use data-text="l" xlink:href="#font_8_79" transform="matrix(21.36,0,0,-21.36,147.33689,175.90579)" fill="#2663ff"/>
<use data-text="l" xlink:href="#font_8_79" transform="matrix(21.36,0,0,-21.36,154.29689,175.90579)" fill="#2663ff"/>
<use data-text="z" xlink:href="#font_8_93" transform="matrix(21.36,0,0,-21.36,161.2569,175.90579)" fill="#2663ff"/>
</g>
</g>
</svg>
