<svg xmlns="http://www.w3.org/2000/svg" xmlns:xlink="http://www.w3.org/1999/xlink" width="500" zoomAndPan="magnify" viewBox="0 0 375 374.999991" height="500" preserveAspectRatio="xMidYMid meet" version="1.2"><defs><clipPath id="2d1958d3f2"><path d="M 54.375 54.375 L 320.625 54.375 L 320.625 320.625 L 54.375 320.625 Z M 54.375 54.375 "/></clipPath><clipPath id="63249636ee"><path d="M 187.5 54.375 C 113.976562 54.375 54.375 113.976562 54.375 187.5 C 54.375 261.023438 113.976562 320.625 187.5 320.625 C 261.023438 320.625 320.625 261.023438 320.625 187.5 C 320.625 113.976562 261.023438 54.375 187.5 54.375 Z M 187.5 54.375 "/></clipPath><linearGradient x1="0.00000502565" gradientTransform="matrix(1.040039,0,0,1.040039,54.375003,54.374999)" y1="255.999995" x2="255.999995" gradientUnits="userSpaceOnUse" y2="0.00000502565" id="037d30b188"><stop style="stop-color:#1a1054;stop-opacity:1;" offset="0"/><stop style="stop-color:#1a1055;stop-opacity:1;" offset="0.00390625"/><stop style="stop-color:#1a1155;stop-opacity:1;" offset="0.0078125"/><stop style="stop-color:#1a1156;stop-opacity:1;" offset="0.0117188"/><stop style="stop-color:#1a1156;stop-opacity:1;" offset="0.015625"/><stop style="stop-color:#1a1257;stop-opacity:1;" offset="0.0195313"/><stop style="stop-color:#1a1258;stop-opacity:1;" offset="0.0234375"/><stop style="stop-color:#1a1258;stop-opacity:1;" offset="0.0273438"/><stop style="stop-color:#1a1359;stop-opacity:1;" offset="0.03125"/><stop style="stop-color:#1a1359;stop-opacity:1;" offset="0.0351563"/><stop style="stop-color:#1a135a;stop-opacity:1;" offset="0.0390625"/><stop style="stop-color:#1a135b;stop-opacity:1;" offset="0.0429688"/><stop style="stop-color:#1b145b;stop-opacity:1;" offset="0.046875"/><stop style="stop-color:#1b145c;stop-opacity:1;" offset="0.0507813"/><stop style="stop-color:#1b145c;stop-opacity:1;" offset="0.0546875"/><stop style="stop-color:#1b155d;stop-opacity:1;" offset="0.0585938"/><stop style="stop-color:#1b155e;stop-opacity:1;" offset="0.0625"/><stop style="stop-color:#1b155e;stop-opacity:1;" offset="0.0664062"/><stop style="stop-color:#1b165f;stop-opacity:1;" offset="0.0703125"/><stop style="stop-color:#1b1660;stop-opacity:1;" offset="0.0742188"/><stop style="stop-color:#1b1660;stop-opacity:1;" offset="0.078125"/><stop style="stop-color:#1b1761;stop-opacity:1;" offset="0.0820313"/><stop style="stop-color:#1b1761;stop-opacity:1;" offset="0.0859375"/><stop style="stop-color:#1b1762;stop-opacity:1;" offset="0.0898438"/><stop style="stop-color:#1b1763;stop-opacity:1;" offset="0.09375"/><stop style="stop-color:#1b1863;stop-opacity:1;" offset="0.0976563"/><stop style="stop-color:#1b1864;stop-opacity:1;" offset="0.101563"/><stop style="stop-color:#1b1864;stop-opacity:1;" offset="0.105469"/><stop style="stop-color:#1b1965;stop-opacity:1;" offset="0.109375"/><stop style="stop-color:#1b1966;stop-opacity:1;" offset="0.113281"/><stop style="stop-color:#1b1966;stop-opacity:1;" offset="0.117188"/><stop style="stop-color:#1b1a67;stop-opacity:1;" offset="0.121094"/><stop style="stop-color:#1b1a68;stop-opacity:1;" offset="0.125"/><stop style="stop-color:#1b1a68;stop-opacity:1;" offset="0.128906"/><stop style="stop-color:#1b1b69;stop-opacity:1;" offset="0.132812"/><stop style="stop-color:#1c1b69;stop-opacity:1;" offset="0.136719"/><stop style="stop-color:#1c1b6a;stop-opacity:1;" offset="0.140625"/><stop style="stop-color:#1c1b6b;stop-opacity:1;" offset="0.144531"/><stop style="stop-color:#1c1c6b;stop-opacity:1;" offset="0.148438"/><stop style="stop-color:#1c1c6c;stop-opacity:1;" offset="0.152344"/><stop style="stop-color:#1c1c6c;stop-opacity:1;" offset="0.15625"/><stop style="stop-color:#1c1d6d;stop-opacity:1;" offset="0.160156"/><stop style="stop-color:#1c1d6e;stop-opacity:1;" offset="0.164062"/><stop style="stop-color:#1c1d6e;stop-opacity:1;" offset="0.167969"/><stop style="stop-color:#1c1e6f;stop-opacity:1;" offset="0.171875"/><stop style="stop-color:#1c1e70;stop-opacity:1;" offset="0.175781"/><stop style="stop-color:#1c1e70;stop-opacity:1;" offset="0.179688"/><stop style="stop-color:#1c1f71;stop-opacity:1;" offset="0.183594"/><stop style="stop-color:#1c1f71;stop-opacity:1;" offset="0.1875"/><stop style="stop-color:#1c1f72;stop-opacity:1;" offset="0.191406"/><stop style="stop-color:#1c2073;stop-opacity:1;" offset="0.195312"/><stop style="stop-color:#1c2073;stop-opacity:1;" offset="0.199219"/><stop style="stop-color:#1c2074;stop-opacity:1;" offset="0.203125"/><stop style="stop-color:#1c2074;stop-opacity:1;" offset="0.207031"/><stop style="stop-color:#1c2175;stop-opacity:1;" offset="0.210938"/><stop style="stop-color:#1c2176;stop-opacity:1;" offset="0.214844"/><stop style="stop-color:#1c2176;stop-opacity:1;" offset="0.21875"/><stop style="stop-color:#1c2277;stop-opacity:1;" offset="0.222656"/><stop style="stop-color:#1c2277;stop-opacity:1;" offset="0.226562"/><stop style="stop-color:#1d2278;stop-opacity:1;" offset="0.230469"/><stop style="stop-color:#1d2379;stop-opacity:1;" offset="0.234375"/><stop style="stop-color:#1d2379;stop-opacity:1;" offset="0.238281"/><stop style="stop-color:#1d237a;stop-opacity:1;" offset="0.242188"/><stop style="stop-color:#1d247b;stop-opacity:1;" offset="0.246094"/><stop style="stop-color:#1d247b;stop-opacity:1;" offset="0.25"/><stop style="stop-color:#1d247c;stop-opacity:1;" offset="0.253906"/><stop style="stop-color:#1d247c;stop-opacity:1;" offset="0.257812"/><stop style="stop-color:#1d257d;stop-opacity:1;" offset="0.261719"/><stop style="stop-color:#1d257e;stop-opacity:1;" offset="0.265625"/><stop style="stop-color:#1d257e;stop-opacity:1;" offset="0.269531"/><stop style="stop-color:#1d267f;stop-opacity:1;" offset="0.273438"/><stop style="stop-color:#1d267f;stop-opacity:1;" offset="0.277344"/><stop style="stop-color:#1d2680;stop-opacity:1;" offset="0.28125"/><stop style="stop-color:#1d2781;stop-opacity:1;" offset="0.285156"/><stop style="stop-color:#1d2781;stop-opacity:1;" offset="0.289062"/><stop style="stop-color:#1d2782;stop-opacity:1;" offset="0.292969"/><stop style="stop-color:#1d2883;stop-opacity:1;" offset="0.296875"/><stop style="stop-color:#1d2883;stop-opacity:1;" offset="0.300781"/><stop style="stop-color:#1d2884;stop-opacity:1;" offset="0.304688"/><stop style="stop-color:#1d2884;stop-opacity:1;" offset="0.308594"/><stop style="stop-color:#1d2985;stop-opacity:1;" offset="0.3125"/><stop style="stop-color:#1d2986;stop-opacity:1;" offset="0.316406"/><stop style="stop-color:#1e2986;stop-opacity:1;" offset="0.320312"/><stop style="stop-color:#1e2a87;stop-opacity:1;" offset="0.324219"/><stop style="stop-color:#1e2a87;stop-opacity:1;" offset="0.328125"/><stop style="stop-color:#1e2a88;stop-opacity:1;" offset="0.332031"/><stop style="stop-color:#1e2b89;stop-opacity:1;" offset="0.335938"/><stop style="stop-color:#1e2b89;stop-opacity:1;" offset="0.339844"/><stop style="stop-color:#1e2b8a;stop-opacity:1;" offset="0.34375"/><stop style="stop-color:#1e2c8a;stop-opacity:1;" offset="0.347656"/><stop style="stop-color:#1e2c8b;stop-opacity:1;" offset="0.351562"/><stop style="stop-color:#1e2c8c;stop-opacity:1;" offset="0.355469"/><stop style="stop-color:#1e2c8c;stop-opacity:1;" offset="0.359375"/><stop style="stop-color:#1e2d8d;stop-opacity:1;" offset="0.363281"/><stop style="stop-color:#1e2d8e;stop-opacity:1;" offset="0.367188"/><stop style="stop-color:#1e2d8e;stop-opacity:1;" offset="0.371094"/><stop style="stop-color:#1e2e8f;stop-opacity:1;" offset="0.375"/><stop style="stop-color:#1e2e8f;stop-opacity:1;" offset="0.378906"/><stop style="stop-color:#1e2e90;stop-opacity:1;" offset="0.382812"/><stop style="stop-color:#1e2f91;stop-opacity:1;" offset="0.386719"/><stop style="stop-color:#1e2f91;stop-opacity:1;" offset="0.390625"/><stop style="stop-color:#1e2f92;stop-opacity:1;" offset="0.394531"/><stop style="stop-color:#1e3092;stop-opacity:1;" offset="0.398438"/><stop style="stop-color:#1e3093;stop-opacity:1;" offset="0.402344"/><stop style="stop-color:#1e3094;stop-opacity:1;" offset="0.40625"/><stop style="stop-color:#1f3094;stop-opacity:1;" offset="0.410156"/><stop style="stop-color:#1f3195;stop-opacity:1;" offset="0.414062"/><stop style="stop-color:#1f3196;stop-opacity:1;" offset="0.417969"/><stop style="stop-color:#1f3196;stop-opacity:1;" offset="0.421875"/><stop style="stop-color:#1f3297;stop-opacity:1;" offset="0.425781"/><stop style="stop-color:#1f3297;stop-opacity:1;" offset="0.429688"/><stop style="stop-color:#1f3298;stop-opacity:1;" offset="0.433594"/><stop style="stop-color:#1f3399;stop-opacity:1;" offset="0.4375"/><stop style="stop-color:#1f3399;stop-opacity:1;" offset="0.441406"/><stop style="stop-color:#1f339a;stop-opacity:1;" offset="0.445312"/><stop style="stop-color:#1f349a;stop-opacity:1;" offset="0.449219"/><stop style="stop-color:#1f349b;stop-opacity:1;" offset="0.453125"/><stop style="stop-color:#1f349c;stop-opacity:1;" offset="0.457031"/><stop style="stop-color:#1f359c;stop-opacity:1;" offset="0.460938"/><stop style="stop-color:#1f359d;stop-opacity:1;" offset="0.464844"/><stop style="stop-color:#1f359e;stop-opacity:1;" offset="0.46875"/><stop style="stop-color:#1f359e;stop-opacity:1;" offset="0.472656"/><stop style="stop-color:#1f369f;stop-opacity:1;" offset="0.476563"/><stop style="stop-color:#1f369f;stop-opacity:1;" offset="0.480469"/><stop style="stop-color:#1f36a0;stop-opacity:1;" offset="0.484375"/><stop style="stop-color:#1f37a1;stop-opacity:1;" offset="0.488281"/><stop style="stop-color:#1f37a1;stop-opacity:1;" offset="0.492188"/><stop style="stop-color:#1f37a2;stop-opacity:1;" offset="0.496094"/><stop style="stop-color:#1f38a2;stop-opacity:1;" offset="0.5"/><stop style="stop-color:#2038a3;stop-opacity:1;" offset="0.503906"/><stop style="stop-color:#2038a4;stop-opacity:1;" offset="0.507812"/><stop style="stop-color:#2039a4;stop-opacity:1;" offset="0.511719"/><stop style="stop-color:#2039a5;stop-opacity:1;" offset="0.515625"/><stop style="stop-color:#2039a5;stop-opacity:1;" offset="0.519531"/><stop style="stop-color:#2039a6;stop-opacity:1;" offset="0.523438"/><stop style="stop-color:#203aa7;stop-opacity:1;" offset="0.527344"/><stop style="stop-color:#203aa7;stop-opacity:1;" offset="0.53125"/><stop style="stop-color:#203aa8;stop-opacity:1;" offset="0.535156"/><stop style="stop-color:#203ba9;stop-opacity:1;" offset="0.539063"/><stop style="stop-color:#203ba9;stop-opacity:1;" offset="0.542969"/><stop style="stop-color:#203baa;stop-opacity:1;" offset="0.546875"/><stop style="stop-color:#203caa;stop-opacity:1;" offset="0.550781"/><stop style="stop-color:#203cab;stop-opacity:1;" offset="0.554688"/><stop style="stop-color:#203cac;stop-opacity:1;" offset="0.558594"/><stop style="stop-color:#203dac;stop-opacity:1;" offset="0.5625"/><stop style="stop-color:#203dad;stop-opacity:1;" offset="0.566406"/><stop style="stop-color:#203dad;stop-opacity:1;" offset="0.570312"/><stop style="stop-color:#203dae;stop-opacity:1;" offset="0.574219"/><stop style="stop-color:#203eaf;stop-opacity:1;" offset="0.578125"/><stop style="stop-color:#203eaf;stop-opacity:1;" offset="0.582031"/><stop style="stop-color:#203eb0;stop-opacity:1;" offset="0.585938"/><stop style="stop-color:#203fb1;stop-opacity:1;" offset="0.589844"/><stop style="stop-color:#213fb1;stop-opacity:1;" offset="0.59375"/><stop style="stop-color:#213fb2;stop-opacity:1;" offset="0.597656"/><stop style="stop-color:#2140b2;stop-opacity:1;" offset="0.601563"/><stop style="stop-color:#2140b3;stop-opacity:1;" offset="0.605469"/><stop style="stop-color:#2140b4;stop-opacity:1;" offset="0.609375"/><stop style="stop-color:#2141b4;stop-opacity:1;" offset="0.613281"/><stop style="stop-color:#2141b5;stop-opacity:1;" offset="0.617188"/><stop style="stop-color:#2141b5;stop-opacity:1;" offset="0.621094"/><stop style="stop-color:#2141b6;stop-opacity:1;" offset="0.625"/><stop style="stop-color:#2142b7;stop-opacity:1;" offset="0.628906"/><stop style="stop-color:#2142b7;stop-opacity:1;" offset="0.632812"/><stop style="stop-color:#2142b8;stop-opacity:1;" offset="0.636719"/><stop style="stop-color:#2143b9;stop-opacity:1;" offset="0.640625"/><stop style="stop-color:#2143b9;stop-opacity:1;" offset="0.644531"/><stop style="stop-color:#2143ba;stop-opacity:1;" offset="0.648438"/><stop style="stop-color:#2144ba;stop-opacity:1;" offset="0.652344"/><stop style="stop-color:#2144bb;stop-opacity:1;" offset="0.65625"/><stop style="stop-color:#2144bc;stop-opacity:1;" offset="0.660156"/><stop style="stop-color:#2145bc;stop-opacity:1;" offset="0.664063"/><stop style="stop-color:#2145bd;stop-opacity:1;" offset="0.667969"/><stop style="stop-color:#2145bd;stop-opacity:1;" offset="0.671875"/><stop style="stop-color:#2145be;stop-opacity:1;" offset="0.675781"/><stop style="stop-color:#2146bf;stop-opacity:1;" offset="0.679688"/><stop style="stop-color:#2246bf;stop-opacity:1;" offset="0.683594"/><stop style="stop-color:#2246c0;stop-opacity:1;" offset="0.6875"/><stop style="stop-color:#2247c0;stop-opacity:1;" offset="0.691406"/><stop style="stop-color:#2247c1;stop-opacity:1;" offset="0.695312"/><stop style="stop-color:#2247c2;stop-opacity:1;" offset="0.699219"/><stop style="stop-color:#2248c2;stop-opacity:1;" offset="0.703125"/><stop style="stop-color:#2248c3;stop-opacity:1;" offset="0.707031"/><stop style="stop-color:#2248c4;stop-opacity:1;" offset="0.710938"/><stop style="stop-color:#2249c4;stop-opacity:1;" offset="0.714844"/><stop style="stop-color:#2249c5;stop-opacity:1;" offset="0.71875"/><stop style="stop-color:#2249c5;stop-opacity:1;" offset="0.722656"/><stop style="stop-color:#2249c6;stop-opacity:1;" offset="0.726563"/><stop style="stop-color:#224ac7;stop-opacity:1;" offset="0.730469"/><stop style="stop-color:#224ac7;stop-opacity:1;" offset="0.734375"/><stop style="stop-color:#224ac8;stop-opacity:1;" offset="0.738281"/><stop style="stop-color:#224bc8;stop-opacity:1;" offset="0.742188"/><stop style="stop-color:#224bc9;stop-opacity:1;" offset="0.746094"/><stop style="stop-color:#224bca;stop-opacity:1;" offset="0.75"/><stop style="stop-color:#224cca;stop-opacity:1;" offset="0.753906"/><stop style="stop-color:#224ccb;stop-opacity:1;" offset="0.757812"/><stop style="stop-color:#224ccc;stop-opacity:1;" offset="0.761719"/><stop style="stop-color:#224dcc;stop-opacity:1;" offset="0.765625"/><stop style="stop-color:#224dcd;stop-opacity:1;" offset="0.769531"/><stop style="stop-color:#224dcd;stop-opacity:1;" offset="0.773437"/><stop style="stop-color:#234ece;stop-opacity:1;" offset="0.777344"/><stop style="stop-color:#234ecf;stop-opacity:1;" offset="0.78125"/><stop style="stop-color:#234ecf;stop-opacity:1;" offset="0.785156"/><stop style="stop-color:#234ed0;stop-opacity:1;" offset="0.789063"/><stop style="stop-color:#234fd0;stop-opacity:1;" offset="0.792969"/><stop style="stop-color:#234fd1;stop-opacity:1;" offset="0.796875"/><stop style="stop-color:#234fd2;stop-opacity:1;" offset="0.800781"/><stop style="stop-color:#2350d2;stop-opacity:1;" offset="0.804688"/><stop style="stop-color:#2350d3;stop-opacity:1;" offset="0.808594"/><stop style="stop-color:#2350d4;stop-opacity:1;" offset="0.8125"/><stop style="stop-color:#2351d4;stop-opacity:1;" offset="0.816406"/><stop style="stop-color:#2351d5;stop-opacity:1;" offset="0.820312"/><stop style="stop-color:#2351d5;stop-opacity:1;" offset="0.824219"/><stop style="stop-color:#2352d6;stop-opacity:1;" offset="0.828125"/><stop style="stop-color:#2352d7;stop-opacity:1;" offset="0.832031"/><stop style="stop-color:#2352d7;stop-opacity:1;" offset="0.835937"/><stop style="stop-color:#2352d8;stop-opacity:1;" offset="0.839844"/><stop style="stop-color:#2353d8;stop-opacity:1;" offset="0.84375"/><stop style="stop-color:#2353d9;stop-opacity:1;" offset="0.847656"/><stop style="stop-color:#2353da;stop-opacity:1;" offset="0.851563"/><stop style="stop-color:#2354da;stop-opacity:1;" offset="0.855469"/><stop style="stop-color:#2354db;stop-opacity:1;" offset="0.859375"/><stop style="stop-color:#2354db;stop-opacity:1;" offset="0.863281"/><stop style="stop-color:#2455dc;stop-opacity:1;" offset="0.867188"/><stop style="stop-color:#2455dd;stop-opacity:1;" offset="0.871094"/><stop style="stop-color:#2455dd;stop-opacity:1;" offset="0.875"/><stop style="stop-color:#2456de;stop-opacity:1;" offset="0.878906"/><stop style="stop-color:#2456df;stop-opacity:1;" offset="0.882812"/><stop style="stop-color:#2456df;stop-opacity:1;" offset="0.886719"/><stop style="stop-color:#2456e0;stop-opacity:1;" offset="0.890625"/><stop style="stop-color:#2457e0;stop-opacity:1;" offset="0.894531"/><stop style="stop-color:#2457e1;stop-opacity:1;" offset="0.898437"/><stop style="stop-color:#2457e2;stop-opacity:1;" offset="0.902344"/><stop style="stop-color:#2458e2;stop-opacity:1;" offset="0.90625"/><stop style="stop-color:#2458e3;stop-opacity:1;" offset="0.910156"/><stop style="stop-color:#2458e3;stop-opacity:1;" offset="0.914063"/><stop style="stop-color:#2459e4;stop-opacity:1;" offset="0.917969"/><stop style="stop-color:#2459e5;stop-opacity:1;" offset="0.921875"/><stop style="stop-color:#2459e5;stop-opacity:1;" offset="0.925781"/><stop style="stop-color:#245ae6;stop-opacity:1;" offset="0.929688"/><stop style="stop-color:#245ae7;stop-opacity:1;" offset="0.933594"/><stop style="stop-color:#245ae7;stop-opacity:1;" offset="0.9375"/><stop style="stop-color:#245ae8;stop-opacity:1;" offset="0.941406"/><stop style="stop-color:#245be8;stop-opacity:1;" offset="0.945312"/><stop style="stop-color:#245be9;stop-opacity:1;" offset="0.949219"/><stop style="stop-color:#245bea;stop-opacity:1;" offset="0.953125"/><stop style="stop-color:#255cea;stop-opacity:1;" offset="0.957031"/><stop style="stop-color:#255ceb;stop-opacity:1;" offset="0.960937"/><stop style="stop-color:#255ceb;stop-opacity:1;" offset="0.964844"/><stop style="stop-color:#255dec;stop-opacity:1;" offset="0.96875"/><stop style="stop-color:#255ded;stop-opacity:1;" offset="0.972656"/><stop style="stop-color:#255ded;stop-opacity:1;" offset="0.976563"/><stop style="stop-color:#255eee;stop-opacity:1;" offset="0.980469"/><stop style="stop-color:#255eef;stop-opacity:1;" offset="0.984375"/><stop style="stop-color:#255eef;stop-opacity:1;" offset="0.988281"/><stop style="stop-color:#255ef0;stop-opacity:1;" offset="0.992188"/><stop style="stop-color:#255ff0;stop-opacity:1;" offset="0.996094"/><stop style="stop-color:#255ff1;stop-opacity:1;" offset="1"/></linearGradient><clipPath id="31255ecf9e"><path d="M 131.238281 97.636719 L 243.738281 97.636719 L 243.738281 236.386719 L 131.238281 236.386719 Z M 131.238281 97.636719 "/></clipPath><clipPath id="0b5c33699e"><path d="M 171.164062 170.707031 L 204 170.707031 L 204 219.457031 L 171.164062 219.457031 Z M 171.164062 170.707031 "/></clipPath></defs><g id="fd9a7c8d14"><g clip-rule="nonzero" clip-path="url(#2d1958d3f2)"><g clip-rule="nonzero" clip-path="url(#63249636ee)"><path style=" stroke:none;fill-rule:nonzero;fill:url(#037d30b188);" d="M 54.375 54.375 L 54.375 320.625 L 320.625 320.625 L 320.625 54.375 Z M 54.375 54.375 "/></g></g><g clip-rule="nonzero" clip-path="url(#31255ecf9e)"><path style=" stroke:none;fill-rule:nonzero;fill:#ffffff;fill-opacity:1;" d="M 147.789062 236.386719 L 227.074219 236.386719 C 227.617188 236.386719 228.15625 236.359375 228.695312 236.304688 C 229.230469 236.253906 229.765625 236.171875 230.296875 236.066406 C 230.828125 235.960938 231.351562 235.828125 231.867188 235.671875 C 232.386719 235.515625 232.894531 235.332031 233.394531 235.125 C 233.894531 234.917969 234.382812 234.6875 234.859375 234.429688 C 235.335938 234.175781 235.796875 233.898438 236.246094 233.597656 C 236.699219 233.296875 237.132812 232.976562 237.550781 232.632812 C 237.96875 232.289062 238.367188 231.925781 238.75 231.542969 C 239.132812 231.160156 239.496094 230.761719 239.839844 230.34375 C 240.179688 229.925781 240.503906 229.492188 240.804688 229.042969 C 241.105469 228.59375 241.382812 228.128906 241.636719 227.652344 C 241.890625 227.175781 242.125 226.6875 242.332031 226.1875 C 242.539062 225.6875 242.71875 225.179688 242.878906 224.660156 C 243.035156 224.144531 243.167969 223.621094 243.273438 223.089844 C 243.378906 222.558594 243.457031 222.027344 243.511719 221.488281 C 243.566406 220.949219 243.59375 220.410156 243.59375 219.871094 L 243.59375 139.453125 C 243.597656 137.257812 243.183594 135.152344 242.34375 133.125 C 241.503906 131.101562 240.308594 129.316406 238.753906 127.769531 L 213.460938 102.476562 C 211.914062 100.921875 210.128906 99.726562 208.105469 98.886719 C 206.078125 98.046875 203.972656 97.632812 201.78125 97.636719 L 147.789062 97.636719 C 147.25 97.636719 146.710938 97.664062 146.171875 97.71875 C 145.632812 97.773438 145.097656 97.851562 144.570312 97.957031 C 144.039062 98.0625 143.515625 98.195312 142.996094 98.351562 C 142.480469 98.511719 141.972656 98.691406 141.472656 98.898438 C 140.972656 99.105469 140.484375 99.339844 140.007812 99.59375 C 139.53125 99.847656 139.066406 100.125 138.617188 100.425781 C 138.167969 100.726562 137.734375 101.050781 137.316406 101.390625 C 136.898438 101.734375 136.5 102.097656 136.117188 102.480469 C 135.734375 102.863281 135.371094 103.261719 135.027344 103.679688 C 134.683594 104.097656 134.363281 104.535156 134.0625 104.984375 C 133.761719 105.433594 133.484375 105.894531 133.226562 106.371094 C 132.972656 106.847656 132.742188 107.335938 132.535156 107.835938 C 132.328125 108.335938 132.144531 108.84375 131.988281 109.363281 C 131.832031 109.878906 131.699219 110.402344 131.59375 110.933594 C 131.488281 111.464844 131.40625 112 131.351562 112.535156 C 131.300781 113.074219 131.273438 113.613281 131.273438 114.15625 L 131.273438 219.871094 C 131.273438 220.410156 131.300781 220.949219 131.351562 221.488281 C 131.40625 222.027344 131.488281 222.558594 131.59375 223.089844 C 131.699219 223.621094 131.832031 224.144531 131.988281 224.660156 C 132.144531 225.179688 132.328125 225.6875 132.535156 226.1875 C 132.742188 226.6875 132.972656 227.175781 133.226562 227.652344 C 133.484375 228.128906 133.761719 228.59375 134.0625 229.042969 C 134.363281 229.492188 134.683594 229.925781 135.027344 230.34375 C 135.371094 230.761719 135.734375 231.160156 136.117188 231.542969 C 136.5 231.925781 136.898438 232.289062 137.316406 232.632812 C 137.734375 232.976562 138.167969 233.296875 138.617188 233.597656 C 139.066406 233.898438 139.53125 234.175781 140.007812 234.429688 C 140.484375 234.6875 140.972656 234.917969 141.472656 235.125 C 141.972656 235.332031 142.480469 235.515625 142.996094 235.671875 C 143.515625 235.828125 144.039062 235.960938 144.570312 236.066406 C 145.097656 236.171875 145.632812 236.253906 146.171875 236.304688 C 146.710938 236.359375 147.25 236.386719 147.789062 236.386719 Z M 203.949219 104.503906 C 205.820312 104.914062 207.433594 105.796875 208.789062 107.148438 L 234.082031 132.441406 C 235.433594 133.796875 236.316406 135.410156 236.730469 137.28125 L 213.859375 137.28125 C 213.210938 137.28125 212.566406 137.214844 211.929688 137.085938 C 211.289062 136.960938 210.671875 136.773438 210.070312 136.523438 C 209.46875 136.273438 208.898438 135.96875 208.359375 135.605469 C 207.816406 135.246094 207.316406 134.835938 206.855469 134.375 C 206.398438 133.914062 205.984375 133.414062 205.625 132.871094 C 205.261719 132.332031 204.957031 131.761719 204.707031 131.160156 C 204.457031 130.558594 204.269531 129.941406 204.144531 129.300781 C 204.015625 128.664062 203.953125 128.019531 203.949219 127.371094 Z M 137.878906 114.15625 C 137.878906 113.503906 137.945312 112.859375 138.070312 112.222656 C 138.199219 111.585938 138.386719 110.964844 138.636719 110.363281 C 138.886719 109.761719 139.191406 109.191406 139.554688 108.652344 C 139.914062 108.109375 140.324219 107.609375 140.785156 107.148438 C 141.246094 106.691406 141.746094 106.28125 142.285156 105.917969 C 142.828125 105.554688 143.398438 105.25 144 105 C 144.601562 104.753906 145.21875 104.5625 145.855469 104.4375 C 146.496094 104.308594 147.140625 104.246094 147.789062 104.246094 L 197.34375 104.246094 L 197.34375 127.371094 C 197.34375 127.910156 197.371094 128.449219 197.425781 128.988281 C 197.476562 129.527344 197.558594 130.058594 197.664062 130.589844 C 197.769531 131.121094 197.902344 131.644531 198.058594 132.160156 C 198.214844 132.679688 198.398438 133.1875 198.605469 133.6875 C 198.8125 134.1875 199.042969 134.675781 199.300781 135.152344 C 199.554688 135.628906 199.832031 136.09375 200.132812 136.542969 C 200.433594 136.992188 200.753906 137.425781 201.097656 137.84375 C 201.441406 138.261719 201.804688 138.660156 202.1875 139.042969 C 202.570312 139.425781 202.96875 139.789062 203.386719 140.132812 C 203.804688 140.476562 204.238281 140.796875 204.6875 141.097656 C 205.136719 141.398438 205.601562 141.675781 206.078125 141.929688 C 206.554688 142.1875 207.042969 142.417969 207.542969 142.625 C 208.042969 142.832031 208.550781 143.015625 209.070312 143.171875 C 209.585938 143.328125 210.109375 143.460938 210.640625 143.566406 C 211.171875 143.671875 211.703125 143.753906 212.242188 143.804688 C 212.78125 143.859375 213.320312 143.886719 213.859375 143.886719 L 236.984375 143.886719 L 236.984375 219.871094 C 236.984375 220.519531 236.921875 221.164062 236.792969 221.800781 C 236.667969 222.441406 236.476562 223.058594 236.230469 223.660156 C 235.980469 224.261719 235.675781 224.832031 235.3125 225.371094 C 234.953125 225.914062 234.539062 226.414062 234.082031 226.875 C 233.621094 227.335938 233.121094 227.746094 232.578125 228.105469 C 232.039062 228.46875 231.46875 228.773438 230.867188 229.023438 C 230.265625 229.273438 229.644531 229.460938 229.007812 229.585938 C 228.371094 229.714844 227.726562 229.78125 227.074219 229.78125 L 147.789062 229.78125 C 147.140625 229.78125 146.496094 229.714844 145.855469 229.585938 C 145.21875 229.460938 144.601562 229.273438 144 229.023438 C 143.398438 228.773438 142.828125 228.46875 142.285156 228.105469 C 141.746094 227.746094 141.246094 227.335938 140.785156 226.875 C 140.324219 226.414062 139.914062 225.914062 139.554688 225.371094 C 139.191406 224.832031 138.886719 224.261719 138.636719 223.660156 C 138.386719 223.058594 138.199219 222.441406 138.070312 221.800781 C 137.945312 221.164062 137.878906 220.519531 137.878906 219.871094 Z M 137.878906 114.15625 "/></g><path style="fill:none;stroke-width:10;stroke-linecap:round;stroke-linejoin:miter;stroke:#ffffff;stroke-opacity:1;stroke-miterlimit:4;" d="M 4.999993 4.998202 L 52.147277 4.998202 " transform="matrix(0.748154,0,0,0.748154,144.638141,120.248855)"/><path style="fill:none;stroke-width:10;stroke-linecap:round;stroke-linejoin:miter;stroke:#ffffff;stroke-opacity:1;stroke-miterlimit:4;" d="M 4.998105 4.99783 L 64.857483 4.99783 " transform="matrix(0.75,0,0,0.75,144.638141,137.517253)"/><path style="fill:none;stroke-width:10;stroke-linecap:round;stroke-linejoin:miter;stroke:#ffffff;stroke-opacity:1;stroke-miterlimit:4;" d="M 4.998105 4.998218 L 84.617901 4.998218 " transform="matrix(0.75,0,0,0.75,144.638141,154.454462)"/><g clip-rule="nonzero" clip-path="url(#0b5c33699e)"><path style=" stroke:none;fill-rule:nonzero;fill:#ffffff;fill-opacity:1;" d="M 200.933594 182.566406 L 197.203125 182.566406 C 196.671875 180.121094 195.480469 177.9375 193.863281 176.140625 L 200.933594 176.140625 C 202.425781 176.140625 203.636719 174.925781 203.636719 173.433594 C 203.636719 171.941406 202.425781 170.726562 200.933594 170.726562 L 173.871094 170.726562 C 172.378906 170.726562 171.164062 171.941406 171.164062 173.433594 C 171.164062 174.925781 172.378906 176.140625 173.871094 176.140625 L 181.988281 176.140625 C 186.148438 176.140625 189.644531 178.835938 190.917969 182.566406 L 173.871094 182.566406 C 172.378906 182.566406 171.164062 183.777344 171.164062 185.273438 C 171.164062 186.765625 172.378906 187.980469 173.871094 187.980469 L 191.125 187.980469 C 190.070312 192.058594 186.398438 195.082031 181.988281 195.082031 L 174.042969 195.082031 C 172.453125 195.082031 171.164062 196.371094 171.164062 197.957031 C 171.164062 198.746094 171.484375 199.457031 171.996094 199.976562 L 171.992188 199.976562 L 172.003906 199.988281 C 172.003906 199.988281 172.003906 199.988281 172.007812 199.992188 L 190.964844 218.707031 L 190.980469 218.699219 C 191.464844 219.148438 192.101562 219.4375 192.8125 219.4375 C 194.308594 219.4375 195.519531 218.222656 195.519531 216.730469 C 195.519531 215.976562 195.210938 215.300781 194.714844 214.808594 L 179.285156 199.816406 C 180.945312 199.816406 182.917969 199.816406 183.34375 199.816406 C 190.378906 199.816406 196.179688 194.691406 197.3125 187.980469 L 200.933594 187.980469 C 202.425781 187.980469 203.636719 186.765625 203.636719 185.273438 C 203.636719 183.777344 202.425781 182.566406 200.933594 182.566406 Z M 200.933594 182.566406 "/></g><g style="fill:#ffffff;fill-opacity:1;"><g transform="translate(119.915681, 269.236931)"><path style="stroke:none" d="M 15.34375 -5.953125 C 15.34375 -4.015625 14.644531 -2.488281 13.25 -1.375 C 11.851562 -0.257812 9.914062 0.296875 7.4375 0.296875 C 5.15625 0.296875 3.132812 -0.132812 1.375 -1 L 1.375 -5.21875 C 2.820312 -4.570312 4.046875 -4.113281 5.046875 -3.84375 C 6.046875 -3.582031 6.960938 -3.453125 7.796875 -3.453125 C 8.785156 -3.453125 9.546875 -3.640625 10.078125 -4.015625 C 10.617188 -4.398438 10.890625 -4.972656 10.890625 -5.734375 C 10.890625 -6.148438 10.769531 -6.519531 10.53125 -6.84375 C 10.300781 -7.175781 9.957031 -7.492188 9.5 -7.796875 C 9.039062 -8.097656 8.113281 -8.582031 6.71875 -9.25 C 5.414062 -9.863281 4.4375 -10.453125 3.78125 -11.015625 C 3.125 -11.578125 2.597656 -12.234375 2.203125 -12.984375 C 1.816406 -13.742188 1.625 -14.625 1.625 -15.625 C 1.625 -17.519531 2.265625 -19.007812 3.546875 -20.09375 C 4.835938 -21.175781 6.613281 -21.71875 8.875 -21.71875 C 9.988281 -21.71875 11.050781 -21.585938 12.0625 -21.328125 C 13.070312 -21.066406 14.128906 -20.695312 15.234375 -20.21875 L 13.765625 -16.6875 C 12.628906 -17.15625 11.6875 -17.476562 10.9375 -17.65625 C 10.1875 -17.84375 9.453125 -17.9375 8.734375 -17.9375 C 7.867188 -17.9375 7.207031 -17.738281 6.75 -17.34375 C 6.289062 -16.945312 6.0625 -16.425781 6.0625 -15.78125 C 6.0625 -15.375 6.15625 -15.019531 6.34375 -14.71875 C 6.53125 -14.425781 6.828125 -14.140625 7.234375 -13.859375 C 7.640625 -13.585938 8.597656 -13.085938 10.109375 -12.359375 C 12.109375 -11.398438 13.476562 -10.441406 14.21875 -9.484375 C 14.96875 -8.523438 15.34375 -7.347656 15.34375 -5.953125 Z M 15.34375 -5.953125 "/></g></g><g style="fill:#ffffff;fill-opacity:1;"><g transform="translate(136.432662, 269.236931)"><path style="stroke:none" d="M 9.125 -13.5 C 8.175781 -13.5 7.429688 -13.195312 6.890625 -12.59375 C 6.359375 -12 6.054688 -11.148438 5.984375 -10.046875 L 12.25 -10.046875 C 12.226562 -11.148438 11.9375 -12 11.375 -12.59375 C 10.820312 -13.195312 10.070312 -13.5 9.125 -13.5 Z M 9.75 0.296875 C 7.113281 0.296875 5.050781 -0.429688 3.5625 -1.890625 C 2.082031 -3.347656 1.34375 -5.410156 1.34375 -8.078125 C 1.34375 -10.816406 2.03125 -12.9375 3.40625 -14.4375 C 4.78125 -15.9375 6.675781 -16.6875 9.09375 -16.6875 C 11.40625 -16.6875 13.207031 -16.023438 14.5 -14.703125 C 15.789062 -13.390625 16.4375 -11.570312 16.4375 -9.25 L 16.4375 -7.078125 L 5.875 -7.078125 C 5.925781 -5.804688 6.300781 -4.8125 7 -4.09375 C 7.707031 -3.382812 8.695312 -3.03125 9.96875 -3.03125 C 10.945312 -3.03125 11.875 -3.128906 12.75 -3.328125 C 13.632812 -3.535156 14.554688 -3.867188 15.515625 -4.328125 L 15.515625 -0.859375 C 14.734375 -0.472656 13.894531 -0.1875 13 0 C 12.113281 0.195312 11.03125 0.296875 9.75 0.296875 Z M 9.75 0.296875 "/></g></g><g style="fill:#ffffff;fill-opacity:1;"><g transform="translate(154.150347, 269.236931)"><path style="stroke:none" d="M 17.46875 0 L 13 0 L 13 -9.5625 C 13 -10.75 12.785156 -11.632812 12.359375 -12.21875 C 11.941406 -12.8125 11.273438 -13.109375 10.359375 -13.109375 C 9.109375 -13.109375 8.203125 -12.691406 7.640625 -11.859375 C 7.085938 -11.023438 6.8125 -9.640625 6.8125 -7.703125 L 6.8125 0 L 2.34375 0 L 2.34375 -16.375 L 5.75 -16.375 L 6.359375 -14.28125 L 6.609375 -14.28125 C 7.109375 -15.070312 7.789062 -15.671875 8.65625 -16.078125 C 9.53125 -16.484375 10.523438 -16.6875 11.640625 -16.6875 C 13.546875 -16.6875 14.992188 -16.171875 15.984375 -15.140625 C 16.972656 -14.109375 17.46875 -12.617188 17.46875 -10.671875 Z M 17.46875 0 "/></g></g><g style="fill:#ffffff;fill-opacity:1;"><g transform="translate(173.859441, 269.236931)"><path style="stroke:none" d="M 7.53125 0.296875 C 5.601562 0.296875 4.085938 -0.445312 2.984375 -1.9375 C 1.890625 -3.4375 1.34375 -5.507812 1.34375 -8.15625 C 1.34375 -10.84375 1.898438 -12.9375 3.015625 -14.4375 C 4.140625 -15.9375 5.679688 -16.6875 7.640625 -16.6875 C 9.703125 -16.6875 11.273438 -15.882812 12.359375 -14.28125 L 12.515625 -14.28125 C 12.285156 -15.5 12.171875 -16.585938 12.171875 -17.546875 L 12.171875 -22.796875 L 16.65625 -22.796875 L 16.65625 0 L 13.234375 0 L 12.359375 -2.125 L 12.171875 -2.125 C 11.160156 -0.507812 9.613281 0.296875 7.53125 0.296875 Z M 9.09375 -3.265625 C 10.238281 -3.265625 11.078125 -3.597656 11.609375 -4.265625 C 12.140625 -4.929688 12.429688 -6.054688 12.484375 -7.640625 L 12.484375 -8.125 C 12.484375 -9.882812 12.210938 -11.144531 11.671875 -11.90625 C 11.128906 -12.664062 10.25 -13.046875 9.03125 -13.046875 C 8.03125 -13.046875 7.253906 -12.625 6.703125 -11.78125 C 6.148438 -10.9375 5.875 -9.707031 5.875 -8.09375 C 5.875 -6.488281 6.148438 -5.28125 6.703125 -4.46875 C 7.265625 -3.664062 8.0625 -3.265625 9.09375 -3.265625 Z M 9.09375 -3.265625 "/></g></g><g style="fill:#ffffff;fill-opacity:1;"><g transform="translate(192.836398, 269.236931)"><path style="stroke:none" d="M 2.703125 -21.421875 L 9.359375 -21.421875 C 12.398438 -21.421875 14.601562 -20.988281 15.96875 -20.125 C 17.34375 -19.257812 18.03125 -17.882812 18.03125 -16 C 18.03125 -14.71875 17.726562 -13.664062 17.125 -12.84375 C 16.53125 -12.019531 15.734375 -11.53125 14.734375 -11.375 L 14.734375 -11.21875 C 16.085938 -10.914062 17.066406 -10.347656 17.671875 -9.515625 C 18.273438 -8.691406 18.578125 -7.59375 18.578125 -6.21875 C 18.578125 -4.257812 17.867188 -2.734375 16.453125 -1.640625 C 15.046875 -0.546875 13.128906 0 10.703125 0 L 2.703125 0 Z M 7.234375 -12.9375 L 9.875 -12.9375 C 11.101562 -12.9375 11.992188 -13.125 12.546875 -13.5 C 13.097656 -13.882812 13.375 -14.515625 13.375 -15.390625 C 13.375 -16.210938 13.070312 -16.800781 12.46875 -17.15625 C 11.875 -17.519531 10.925781 -17.703125 9.625 -17.703125 L 7.234375 -17.703125 Z M 7.234375 -9.328125 L 7.234375 -3.75 L 10.203125 -3.75 C 11.453125 -3.75 12.375 -3.988281 12.96875 -4.46875 C 13.5625 -4.945312 13.859375 -5.679688 13.859375 -6.671875 C 13.859375 -8.441406 12.585938 -9.328125 10.046875 -9.328125 Z M 7.234375 -9.328125 "/></g></g><g style="fill:#ffffff;fill-opacity:1;"><g transform="translate(212.984773, 269.236931)"><path style="stroke:none" d="M 2.15625 -20.609375 C 2.15625 -22.066406 2.960938 -22.796875 4.578125 -22.796875 C 6.203125 -22.796875 7.015625 -22.066406 7.015625 -20.609375 C 7.015625 -19.921875 6.8125 -19.378906 6.40625 -18.984375 C 6 -18.597656 5.390625 -18.40625 4.578125 -18.40625 C 2.960938 -18.40625 2.15625 -19.140625 2.15625 -20.609375 Z M 6.8125 0 L 2.34375 0 L 2.34375 -16.375 L 6.8125 -16.375 Z M 6.8125 0 "/></g></g><g style="fill:#ffffff;fill-opacity:1;"><g transform="translate(222.136476, 269.236931)"><path style="stroke:none" d="M 6.8125 0 L 2.34375 0 L 2.34375 -22.796875 L 6.8125 -22.796875 Z M 6.8125 0 "/></g></g><g style="fill:#ffffff;fill-opacity:1;"><g transform="translate(231.288178, 269.236931)"><path style="stroke:none" d="M 6.8125 0 L 2.34375 0 L 2.34375 -22.796875 L 6.8125 -22.796875 Z M 6.8125 0 "/></g></g><g style="fill:#ffffff;fill-opacity:1;"><g transform="translate(240.43988, 269.236931)"><path style="stroke:none" d="M 13.734375 0 L 0.8125 0 L 0.8125 -2.640625 L 8.390625 -12.96875 L 1.265625 -12.96875 L 1.265625 -16.375 L 13.484375 -16.375 L 13.484375 -13.484375 L 6.09375 -3.40625 L 13.734375 -3.40625 Z M 13.734375 0 "/></g></g></g></svg>